<svg xmlns="http://www.w3.org/2000/svg" width="256.104" height="186.323" viewBox="0 0 256.104 186.323">
  <g id="engineer-about" transform="translate(-0.01 0)">
    <path id="Path_6" data-name="Path 6" d="M315.628,263.731c-6.343,13.09-19.231,21.843-32.581,27.616A120.211,120.211,0,0,1,249.5,300.3q-3.32.394-6.661.611a129.187,129.187,0,0,1-17.093-.019q-5.135-.342-10.234-1.091a129.076,129.076,0,0,1-34.217-9.964q-4.715-2.123-9.238-4.636a118.186,118.186,0,0,1-14.44-9.443q-1.519-1.161-3-2.372l-.406-.332c-.776-.64-1.545-1.294-2.326-1.93a33.813,33.813,0,0,0-4.122-2.957c-.1-.057-.2-.115-.3-.17-.267-.155-.54-.3-.817-.439a18.712,18.712,0,0,0-1.753-.774,22.962,22.962,0,0,0-8.708-1.368c-.5,0-.994.033-1.493.067h0c-.7.048-1.4.119-2.095.21l-.258.036a47.473,47.473,0,0,0-6.575,1.411c-3.329.955-6.6,2.15-9.89,3.227h0c-1.4.461-2.8.9-4.208,1.294l-.31.086a46.071,46.071,0,0,1-6.116,1.28,34.081,34.081,0,0,1-14-1.127l-.158-.045-.291-.086-.4-.124q-1-.315-1.989-.69l-.4-.153q-.955-.368-1.87-.791l-.4-.181q-.955-.444-1.87-.939c-.22-.115-.437-.239-.652-.356q-.974-.545-1.911-1.142-.994-.633-1.944-1.321-.439-.315-.869-.647a38.534,38.534,0,0,1-4.626-4.172c-.079-.079-.153-.16-.227-.239-.38-.411-.752-.829-1.113-1.256-.134-.158-.267-.315-.4-.478q-.642-.783-1.24-1.6c-.06-.079-.117-.16-.174-.239a34.534,34.534,0,0,1-4.029-7.284c-.033-.079-.064-.16-.093-.239q-.478-1.23-.872-2.5c-.107-.353-.21-.716-.3-1.07-.031-.105-.06-.213-.086-.318-1.318-5.19-1.469-10.585-1.469-15.949V228.2c.038-8.677.172-17.5,1.452-26.059a1.089,1.089,0,0,1,.026-.177,81.385,81.385,0,0,1,1.746-8.555,63.11,63.11,0,0,1,2.94-8.67,80.542,80.542,0,0,1,11.982-19.071A107.5,107.5,0,0,1,101.632,146.8q1.576-1.154,3.2-2.24l.5-.327c.174-.117.349-.239.523-.342h0c.358-.239.716-.463,1.08-.69l.406-.253.774-.478.239-.136.413-.239.408-.239q.716-.423,1.45-.826,3.131-1.746,6.41-3.191.967-.427,1.946-.824a68.646,68.646,0,0,1,9.111-2.988q1.72-.435,3.461-.764,2.054-.4,4.129-.657a65.534,65.534,0,0,1,6.635-.494,67.907,67.907,0,0,1,43.584,14.43c4.872,3.879,9.25,8.471,14.722,11.445,4.777,2.589,10.368,3.661,15.483,1.624,4.227-1.684,6.979-2.52,11.727-2.264a98.293,98.293,0,0,1,28.734,6.009c.373.136.745.277,1.115.418,24.053,9.207,44.733,27.489,55.476,50.983q.425.931.829,1.877C320.388,231.6,322.7,249.144,315.628,263.731Z" transform="translate(-63.853 -114.861)" fill="#ce1212" opacity="0.1"/>
    <path id="Path_7" data-name="Path 7" d="M111.644,305.815V396.37l-.31.086a46.066,46.066,0,0,1-6.116,1.28,34.083,34.083,0,0,1-14-1.127l-.158-.045-.291-.086-.4-.124q-1-.315-1.989-.69l-.4-.153q-.955-.368-1.87-.791l-.4-.181q-.955-.444-1.87-.939c-.22-.115-.437-.239-.652-.356q-.974-.545-1.911-1.142-.994-.633-1.944-1.321-.439-.315-.869-.647a38.545,38.545,0,0,1-4.626-4.172c-.079-.079-.153-.16-.227-.239-.38-.411-.752-.829-1.113-1.256-.134-.158-.267-.315-.4-.478q-.642-.783-1.24-1.6c-.06-.079-.117-.16-.174-.239a34.535,34.535,0,0,1-4.029-7.284c-.033-.079-.064-.16-.093-.239q-.478-1.23-.872-2.5c-.107-.353-.21-.716-.3-1.07-.031-.105-.06-.213-.086-.318-1.318-5.19-1.469-10.585-1.469-15.949v-1.875c.038-8.677.172-17.5,1.452-26.059a1.086,1.086,0,0,1,.026-.177,81.383,81.383,0,0,1,1.746-8.555H91.454V305.815h4.863V295.93h10.466v9.885Z" transform="translate(-63.83 -239.566)" fill="#ce1212" opacity="0.1"/>
    <path id="Path_8" data-name="Path 8" d="M573.878,363.371c-6.343,13.09-19.231,21.843-32.581,27.616a120.212,120.212,0,0,1-33.544,8.951q-3.32.394-6.661.611A129.178,129.178,0,0,1,484,400.531q-5.135-.342-10.234-1.091a129.077,129.077,0,0,1-34.217-9.964q-4.715-2.123-9.238-4.636a118.182,118.182,0,0,1-14.44-9.443q-1.519-1.161-3-2.372l-.406-.332c-.776-.64-1.545-1.294-2.326-1.93a33.824,33.824,0,0,0-4.122-2.957c-.1-.057-.2-.115-.3-.17-.267-.155-.54-.3-.817-.44a18.709,18.709,0,0,0-1.753-.774V329.378h44.325v8.247h19.453V277.3h22.9v24.122h11.325V287.141h9.357V271.885h4.3V263c.373.136.745.277,1.115.418v8.467h4.184v15.266h9.35v14.282h13.788v54.413h21.915V316.274h7.062C578.638,331.241,580.95,348.783,573.878,363.371Z" transform="translate(-322.102 -214.501)" fill="#ce1212" opacity="0.1"/>
    <rect id="Rectangle_19" data-name="Rectangle 19" width="10.234" height="10.234" transform="translate(151.667 71.878)" fill="#ce1212" opacity="0.1"/>
    <rect id="Rectangle_20" data-name="Rectangle 20" width="10.234" height="10.234" transform="translate(151.667 93.091)" fill="#ce1212" opacity="0.1"/>
    <rect id="Rectangle_21" data-name="Rectangle 21" width="10.234" height="10.234" transform="translate(151.667 114.307)" fill="#ce1212" opacity="0.1"/>
    <rect id="Rectangle_22" data-name="Rectangle 22" width="10.234" height="10.234" transform="translate(151.667 135.522)" fill="#ce1212" opacity="0.1"/>
    <rect id="Rectangle_23" data-name="Rectangle 23" width="10.234" height="10.234" transform="translate(151.667 156.735)" fill="#ce1212" opacity="0.1"/>
    <path id="Path_9" data-name="Path 9" d="M709.074,805v8.082q-5.135-.341-10.234-1.091V805Z" transform="translate(-547.173 -627.055)" fill="#ce1212" opacity="0.1"/>
    <rect id="Rectangle_24" data-name="Rectangle 24" width="35.822" height="4.636" transform="translate(84.422 128.104)" fill="#ce1212" opacity="0.1"/>
    <rect id="Rectangle_25" data-name="Rectangle 25" width="35.822" height="4.636" transform="translate(84.422 142.183)" fill="#ce1212" opacity="0.1"/>
    <path id="Path_10" data-name="Path 10" d="M464.634,714.21v4.633H438.162q-1.519-1.161-3-2.372l-.406-.332c-.776-.64-1.545-1.294-2.326-1.93Z" transform="translate(-344.389 -557.948)" fill="#ce1212" opacity="0.1"/>
    <path id="Path_11" data-name="Path 11" d="M528.922,773.15v4.636h-2.794q-4.714-2.123-9.238-4.636Z" transform="translate(-408.678 -602.812)" fill="#ce1212" opacity="0.1"/>
    <rect id="Rectangle_26" data-name="Rectangle 26" width="6.661" height="6.661" transform="translate(178.994 99.59)" fill="#ce1212" opacity="0.1"/>
    <rect id="Rectangle_27" data-name="Rectangle 27" width="6.661" height="6.661" transform="translate(34.741 68.547)" fill="#ce1212" opacity="0.1"/>
    <rect id="Rectangle_28" data-name="Rectangle 28" width="6.661" height="6.661" transform="translate(34.741 84.023)" fill="#ce1212" opacity="0.1"/>
    <rect id="Rectangle_29" data-name="Rectangle 29" width="6.661" height="6.661" transform="translate(34.741 99.497)" fill="#ce1212" opacity="0.1"/>
    <rect id="Rectangle_30" data-name="Rectangle 30" width="6.661" height="6.661" transform="translate(34.741 114.973)" fill="#ce1212" opacity="0.1"/>
    <rect id="Rectangle_31" data-name="Rectangle 31" width="6.661" height="6.661" transform="translate(34.741 130.449)" fill="#ce1212" opacity="0.1"/>
    <rect id="Rectangle_32" data-name="Rectangle 32" width="6.661" height="6.661" transform="translate(34.741 145.923)" fill="#ce1212" opacity="0.1"/>
    <rect id="Rectangle_33" data-name="Rectangle 33" width="6.661" height="6.661" transform="translate(204.427 99.59)" fill="#ce1212" opacity="0.1"/>
    <rect id="Rectangle_34" data-name="Rectangle 34" width="6.661" height="6.661" transform="translate(178.994 116.021)" fill="#ce1212" opacity="0.1"/>
    <rect id="Rectangle_35" data-name="Rectangle 35" width="6.661" height="6.661" transform="translate(204.427 116.021)" fill="#ce1212" opacity="0.1"/>
    <rect id="Rectangle_36" data-name="Rectangle 36" width="6.661" height="6.661" transform="translate(178.994 132.455)" fill="#ce1212" opacity="0.1"/>
    <rect id="Rectangle_37" data-name="Rectangle 37" width="6.661" height="6.661" transform="translate(204.427 132.455)" fill="#ce1212" opacity="0.1"/>
    <rect id="Rectangle_38" data-name="Rectangle 38" width="6.661" height="6.661" transform="translate(178.994 148.889)" fill="#ce1212" opacity="0.1"/>
    <rect id="Rectangle_39" data-name="Rectangle 39" width="6.661" height="6.661" transform="translate(204.427 148.889)" fill="#ce1212" opacity="0.1"/>
    <rect id="Rectangle_40" data-name="Rectangle 40" width="6.661" height="6.661" transform="translate(178.994 165.321)" fill="#ce1212" opacity="0.1"/>
    <rect id="Rectangle_41" data-name="Rectangle 41" width="6.661" height="6.661" transform="translate(204.427 165.321)" fill="#ce1212" opacity="0.1"/>
    <path id="Path_12" data-name="Path 12" d="M749.43,765.307v-4.3h6.661V764.7Z" transform="translate(-570.436 -579.258)" fill="#ce1212" opacity="0.1"/>
    <path id="Path_13" data-name="Path 13" d="M69.93,424.68V428.5H95.406V424.68Zm2.269,3.582h-1.87v-3.344H72.2Zm2.269,0H72.6v-3.344h1.87Zm2.269,0h-1.87v-3.344h1.87Zm2.269,0h-1.87v-3.344h1.87Zm2.269,0H79.4v-3.344h1.87Zm2.269,0h-1.87v-3.344h1.87Zm2.269,0h-1.87v-3.344h1.87Zm2.269,0h-1.87v-3.344h1.87Zm2.269,0H88.48v-3.344h1.87Zm2.269,0h-1.87v-3.344h1.87Zm2.388,0H93.018v-3.344h1.989Z" transform="translate(-68.466 -337.567)" fill="#ce1212" opacity="0.1"/>
    <path id="Path_14" data-name="Path 14" d="M69.93,471.14v3.809H95.406V471.14Zm2.269,3.571h-1.87v-3.332H72.2Zm2.269,0H72.6v-3.332h1.87Zm2.269,0h-1.87v-3.332h1.87Zm2.269,0h-1.87v-3.332h1.87Zm2.269,0H79.4v-3.332h1.87Zm2.269,0h-1.87v-3.332h1.87Zm2.269,0h-1.87v-3.332h1.87Zm2.269,0h-1.87v-3.332h1.87Zm2.269,0H88.48v-3.332h1.87Zm2.269,0h-1.87v-3.332h1.87Zm2.388,0H93.018v-3.332h1.989Z" transform="translate(-68.466 -372.931)" fill="#ce1212" opacity="0.1"/>
    <path id="Path_15" data-name="Path 15" d="M69.93,517.59V521.4H95.406V517.59Zm2.269,3.571h-1.87v-3.332H72.2Zm2.269,0H72.6v-3.332h1.87Zm2.269,0h-1.87v-3.332h1.87Zm2.269,0h-1.87v-3.332h1.87Zm2.269,0H79.4v-3.332h1.87Zm2.269,0h-1.87v-3.332h1.87Zm2.269,0h-1.87v-3.332h1.87Zm2.269,0h-1.87v-3.332h1.87Zm2.269,0H88.48v-3.332h1.87Zm2.269,0h-1.87v-3.332h1.87Zm2.388,0H93.018v-3.332h1.989Z" transform="translate(-68.466 -408.287)" fill="#ce1212" opacity="0.1"/>
    <path id="Path_16" data-name="Path 16" d="M69.93,564v3.821H95.406V564Zm2.269,3.582h-1.87v-3.344H72.2Zm2.269,0H72.6v-3.344h1.87Zm2.269,0h-1.87v-3.344h1.87Zm2.269,0h-1.87v-3.344h1.87Zm2.269,0H79.4v-3.344h1.87Zm2.269,0h-1.87v-3.344h1.87Zm2.269,0h-1.87v-3.344h1.87Zm2.269,0h-1.87v-3.344h1.87Zm2.269,0H88.48v-3.344h1.87Zm2.269,0h-1.87v-3.344h1.87Zm2.388,0H93.018v-3.344h1.989Z" transform="translate(-68.466 -443.613)" fill="#ce1212" opacity="0.1"/>
    <path id="Path_17" data-name="Path 17" d="M70.34,610.49c.091.358.193.716.3,1.07v-.831h1.87v3.344h-1c.029.079.06.16.093.239H95.728V610.49Zm4.44,3.582H72.91v-3.344h1.87Zm2.269,0h-1.87v-3.344h1.87Zm2.269,0h-1.87v-3.344h1.87Zm2.269,0h-1.87v-3.344h1.87Zm2.269,0h-1.87v-3.344h1.87Zm2.269,0h-1.87v-3.344h1.87Zm2.269,0h-1.87v-3.344h1.87Zm2.269,0h-1.87v-3.344h1.87Zm2.269,0h-1.87v-3.344h1.87Zm2.388,0H93.33v-3.344h1.989Z" transform="translate(-68.778 -479)" fill="#ce1212" opacity="0.1"/>
    <path id="Path_18" data-name="Path 18" d="M92.51,656.94c.057.079.115.16.174.239h1.24v1.6c.131.16.265.318.4.478v-2.078h1.87v3.344h-.757c.074.079.148.16.227.239h16.931v-3.821Zm5.952,3.582h-1.87v-3.344h1.87Zm2.269,0h-1.87v-3.344h1.87Zm2.269,0h-1.87v-3.344H103Zm2.269,0H103.4v-3.344h1.87Zm2.269,0h-1.87v-3.344h1.87Zm2.269,0h-1.87v-3.344h1.87Zm2.388,0H110.2v-3.344h1.989Z" transform="translate(-85.653 -514.356)" fill="#ce1212" opacity="0.1"/>
    <path id="Path_19" data-name="Path 19" d="M144.87,703.39c.215.122.432.239.652.356v-.117h1.87v1.056l.4.181v-1.237h1.87v2.028l.4.153v-2.181h1.989v2.866l.4.124V703.39Z" transform="translate(-125.508 -549.712)" fill="#ce1212" opacity="0.1"/>
    <path id="Path_20" data-name="Path 20" d="M457.627,286.146s-5.694-.344-5.015,3.645a.974.974,0,0,0,.506,1.027s0-.3.583-.2a2.664,2.664,0,0,0,.619.029,1.287,1.287,0,0,0,.757-.311h0s1.6-.662,2.224-3.277c0,0,.459-.571.442-.716l-.955.411a1.719,1.719,0,0,1,.072,1.268s-.031-1.242-.217-1.213c-.036,0-.5.239-.5.239a2.835,2.835,0,0,1,.139,2.085s.162-1.486-.313-2l-.693.4a2.977,2.977,0,0,1,.213,2.264,4.224,4.224,0,0,0-.353-2.166l-.614.478a2.9,2.9,0,0,1,.239,2.073s-.05-1.817-.375-1.956a3.681,3.681,0,0,0-.619.669s.425.891.162,1.361c0,0-.162-1.208-.3-1.216a4.024,4.024,0,0,0-.587,1.352,2.908,2.908,0,0,1,.458-1.433,1.6,1.6,0,0,0-.817.423s.084-.566.955-.616a3.726,3.726,0,0,1,.561-.645,3.518,3.518,0,0,0-1.385.16,1.556,1.556,0,0,1,1.543-.291l.6-.494a4.978,4.978,0,0,0-1.614.017,1.943,1.943,0,0,1,1.777-.129l.659-.394a6.015,6.015,0,0,0-1.543-.134,2.367,2.367,0,0,1,1.736.029l.478-.213s-.716-.139-.915-.16-.22-.079-.22-.079a2.455,2.455,0,0,1,1.33.148A6.016,6.016,0,0,0,457.627,286.146Z" transform="translate(-359.708 -232.113)" fill="#ce1212" opacity="0.1"/>
    <path id="Path_21" data-name="Path 21" d="M409.707,367.288s-1.946,5.359,2.071,5.849a.972.972,0,0,0,1.125-.193s-.279-.093-.022-.616a2.719,2.719,0,0,0,.205-.583,1.292,1.292,0,0,0-.086-.814h0s-.179-1.722-2.51-3.062c0,0-.416-.6-.561-.628l.119,1.039a1.721,1.721,0,0,1,1.237.291s-1.194-.322-1.225-.136c0,.036.088.547.088.547a2.828,2.828,0,0,1,2.037.459s-1.38-.578-2-.265l.186.759a2.992,2.992,0,0,1,2.231.439,4.248,4.248,0,0,0-2.178-.275l.284.716a2.963,2.963,0,0,1,2.056.356s-1.758-.478-1.98-.2a3.761,3.761,0,0,0,.463.781s.977-.153,1.352.239c0,0-1.206-.189-1.249-.064a4.117,4.117,0,0,0,1.13.955,2.923,2.923,0,0,1-1.24-.848,1.605,1.605,0,0,0,.174.905s-.521-.239-.322-1.087a3.655,3.655,0,0,1-.459-.716,3.464,3.464,0,0,0-.239,1.373,1.557,1.557,0,0,1,.158-1.562l-.3-.716a4.834,4.834,0,0,0-.444,1.555,1.969,1.969,0,0,1,.382-1.743L410,369.3a5.954,5.954,0,0,0-.566,1.433,2.359,2.359,0,0,1,.518-1.657l-.069-.511s-.334.64-.413.834-.139.186-.139.186a2.455,2.455,0,0,1,.518-1.235A6.032,6.032,0,0,0,409.707,367.288Z" transform="translate(-326.735 -293.845)" fill="#ce1212" opacity="0.1"/>
    <path id="Path_22" data-name="Path 22" d="M567.74,348.36s-1.944,5.369,2.071,5.847a.975.975,0,0,0,1.127-.2s-.282-.093-.021-.614a2.563,2.563,0,0,0,.2-.585,1.293,1.293,0,0,0-.084-.814h0s-.179-1.722-2.51-3.062c0,0-.418-.6-.564-.626l.122,1.036a1.729,1.729,0,0,1,1.237.294s-1.194-.322-1.228-.139c0,.038.088.547.088.547a2.848,2.848,0,0,1,2.04.459s-1.38-.576-2.006-.265l.189.762a2.98,2.98,0,0,1,2.231.439,4.252,4.252,0,0,0-2.181-.277l.284.716a2.963,2.963,0,0,1,2.056.356s-1.755-.478-1.98-.193a3.687,3.687,0,0,0,.478.781s.974-.155,1.352.239c0,0-1.206-.189-1.249-.062a4.137,4.137,0,0,0,1.127.955,2.9,2.9,0,0,1-1.237-.848,1.617,1.617,0,0,0,.172.905s-.518-.239-.32-1.084a3.85,3.85,0,0,1-.461-.716,3.521,3.521,0,0,0-.239,1.373,1.556,1.556,0,0,1,.158-1.562l-.3-.716a4.834,4.834,0,0,0-.444,1.552,1.964,1.964,0,0,1,.382-1.741l-.191-.745a5.955,5.955,0,0,0-.566,1.433,2.371,2.371,0,0,1,.521-1.658l-.069-.511s-.334.64-.416.834-.139.186-.139.186a2.473,2.473,0,0,1,.521-1.235A5.87,5.87,0,0,0,567.74,348.36Z" transform="translate(-447.025 -279.436)" fill="#ce1212" opacity="0.1"/>
    <path id="Path_23" data-name="Path 23" d="M341.837,531.855s-1.947,5.362,2.071,5.851a.97.97,0,0,0,1.125-.2s-.28-.093-.022-.614a2.571,2.571,0,0,0,.205-.585,1.276,1.276,0,0,0-.086-.814h0s-.179-1.722-2.51-3.06c0,0-.416-.6-.561-.628l.119,1.037a1.727,1.727,0,0,1,1.237.294s-1.194-.323-1.225-.138c0,.038.088.547.088.547a2.841,2.841,0,0,1,2.037.459s-1.38-.576-2-.265l.186.762a2.98,2.98,0,0,1,2.231.439,4.242,4.242,0,0,0-2.178-.277l.284.716a2.963,2.963,0,0,1,2.056.356s-1.755-.478-1.98-.193a3.765,3.765,0,0,0,.463.781s.977-.155,1.354.239c0,0-1.208-.189-1.251-.062a4.162,4.162,0,0,0,1.13.956,2.908,2.908,0,0,1-1.24-.845,1.6,1.6,0,0,0,.174.9s-.521-.239-.322-1.084a3.854,3.854,0,0,1-.459-.716,3.474,3.474,0,0,0-.239,1.373,1.556,1.556,0,0,1,.158-1.562l-.3-.717a4.787,4.787,0,0,0-.442,1.552,1.964,1.964,0,0,1,.382-1.741l-.191-.743a5.907,5.907,0,0,0-.566,1.433,2.357,2.357,0,0,1,.518-1.657l-.069-.514s-.334.64-.413.834-.139.186-.139.186a2.446,2.446,0,0,1,.521-1.235A6.091,6.091,0,0,0,341.837,531.855Z" transform="translate(-275.074 -419.111)" fill="#ce1212" opacity="0.1"/>
    <path id="Path_24" data-name="Path 24" d="M309.5,320.258s-1.944,5.359,2.071,5.849a.977.977,0,0,0,1.127-.193s-.282-.093-.021-.616a2.679,2.679,0,0,0,.2-.585,1.285,1.285,0,0,0-.084-.812h0s-.179-1.722-2.513-3.062c0,0-.416-.6-.561-.628l.122,1.039a1.715,1.715,0,0,1,1.235.291s-1.194-.322-1.225-.136c0,.036.088.547.088.547a2.835,2.835,0,0,1,2.04.459s-1.38-.578-2.006-.265l.186.76a2.986,2.986,0,0,1,2.233.439,4.232,4.232,0,0,0-2.181-.275l.284.716a2.955,2.955,0,0,1,2.056.358s-1.755-.478-1.98-.2a3.76,3.76,0,0,0,.463.781s.977-.153,1.354.239c0,0-1.206-.189-1.249-.064a4.094,4.094,0,0,0,1.127.955,2.938,2.938,0,0,1-1.24-.848,1.605,1.605,0,0,0,.174.905s-.521-.239-.32-1.087a3.768,3.768,0,0,1-.461-.716,3.511,3.511,0,0,0-.239,1.373,1.55,1.55,0,0,1,.158-1.562l-.3-.716a4.785,4.785,0,0,0-.442,1.555,1.969,1.969,0,0,1,.382-1.743l-.191-.743a5.95,5.95,0,0,0-.566,1.433,2.375,2.375,0,0,1,.518-1.657l-.067-.511s-.337.64-.416.831-.139.189-.139.189a2.446,2.446,0,0,1,.521-1.235A5.841,5.841,0,0,0,309.5,320.258Z" transform="translate(-250.461 -258.047)" fill="#ce1212" opacity="0.1"/>
    <path id="Path_25" data-name="Path 25" d="M371.44,442.043s1.5,5.493,5.066,3.582a.972.972,0,0,0,.807-.807s-.282.086-.37-.49a2.627,2.627,0,0,0-.172-.595,1.264,1.264,0,0,0-.537-.616h0s-1.139-1.3-3.821-1.056c0,0-.688-.251-.822-.186l.7.776a1.744,1.744,0,0,1,1.18-.478s-1.168.43-1.082.595c.019.033.387.4.387.4a2.821,2.821,0,0,1,1.93-.8s-1.459.325-1.789.941l.59.514a3,3,0,0,1,2.078-.929s-1.517.392-1.942,1.032l.65.428a2.888,2.888,0,0,1,1.887-.893s-1.705.628-1.732.982a3.721,3.721,0,0,0,.831.37s.716-.688,1.24-.59c0,0-1.1.542-1.058.669a4.25,4.25,0,0,0,1.469.124,2.914,2.914,0,0,1-1.5.024,1.59,1.59,0,0,0,.664.638s-.564.1-.888-.7a3.784,3.784,0,0,1-.793-.322,3.531,3.531,0,0,0,.6,1.261,1.558,1.558,0,0,1-.771-1.369l-.662-.413a5,5,0,0,0,.533,1.524,1.965,1.965,0,0,1-.693-1.643l-.583-.5a5.968,5.968,0,0,0,.368,1.5,2.394,2.394,0,0,1-.53-1.653l-.351-.38s.1.716.141.92,0,.239,0,.239a2.452,2.452,0,0,1-.287-1.309A5.968,5.968,0,0,0,371.44,442.043Z" transform="translate(-297.966 -350.648)" fill="#ce1212" opacity="0.1"/>
    <path id="Path_26" data-name="Path 26" d="M542.08,462.622s1.5,5.493,5.063,3.582a.97.97,0,0,0,.81-.807s-.284.086-.373-.478a2.509,2.509,0,0,0-.17-.595,1.28,1.28,0,0,0-.54-.616h0s-1.139-1.3-3.821-1.053c0,0-.688-.253-.819-.189l.7.776a1.745,1.745,0,0,1,1.18-.478s-1.168.43-1.08.595c.017.033.387.4.387.4a2.821,2.821,0,0,1,1.93-.8s-1.462.325-1.791.941l.592.513a2.955,2.955,0,0,1,2.075-.929s-1.514.392-1.939,1.032l.65.427a2.887,2.887,0,0,1,1.884-.893s-1.705.628-1.729.982a3.693,3.693,0,0,0,.829.37s.716-.688,1.24-.59c0,0-1.094.542-1.058.669a4.259,4.259,0,0,0,1.471.124,2.926,2.926,0,0,1-1.5.024,1.607,1.607,0,0,0,.664.638s-.564.1-.888-.7a3.724,3.724,0,0,1-.791-.322,3.508,3.508,0,0,0,.595,1.261,1.558,1.558,0,0,1-.771-1.368l-.661-.418a4.961,4.961,0,0,0,.535,1.524,1.965,1.965,0,0,1-.693-1.643l-.585-.5a5.9,5.9,0,0,0,.37,1.5,2.388,2.388,0,0,1-.533-1.653l-.351-.38s.1.717.141.92,0,.239,0,.239a2.454,2.454,0,0,1-.287-1.309A6.007,6.007,0,0,0,542.08,462.622Z" transform="translate(-427.852 -366.321)" fill="#ce1212" opacity="0.1"/>
    <path id="Path_27" data-name="Path 27" d="M447.568,620.692s12.391-4.172,9.826-18.956l-15.739-4.086L438,609.78Z" transform="translate(-348.629 -469.226)" fill="#ced7e7"/>
    <path id="Path_28" data-name="Path 28" d="M438,622.8l9.565,10.912s12.391-4.172,9.826-18.956Z" transform="translate(-348.629 -482.25)" opacity="0.1"/>
    <path id="Path_29" data-name="Path 29" d="M219.944,179.093s1.672,2.72,3.957,1.361.093-5.113.093-5.113S219.617,174.741,219.944,179.093Z" transform="translate(-182.639 -147.756)" fill="#fed253"/>
    <path id="Path_30" data-name="Path 30" d="M223.9,180.459a2.357,2.357,0,0,1-1.841.31,3.712,3.712,0,0,1-1.829-1.28,3.985,3.985,0,0,1-.287-.389,3.3,3.3,0,0,1,1.034-3.021h0a4.211,4.211,0,0,1,2.742-.755,1.243,1.243,0,0,1,.268.024l.045.076c.064.122.205.392.356.752C224.9,177.359,225.509,179.5,223.9,180.459Z" transform="translate(-182.638 -147.761)" opacity="0.1"/>
    <path id="Path_31" data-name="Path 31" d="M460.553,611.85l8.6.7,16,.131L472.545,628.2s-4,.217-4.824.781-12.393.263-12.393.263l-1.868-7.958Z" transform="translate(-360.397 -480.035)" fill="#ffa2a2"/>
    <path id="Path_32" data-name="Path 32" d="M460.553,611.85l8.6.7,16,.131L472.545,628.2s-4,.217-4.824.781-12.393.263-12.393.263l-1.868-7.958Z" transform="translate(-360.397 -480.035)" opacity="0.05"/>
    <path id="Path_33" data-name="Path 33" d="M419.036,436.017l2,3.391.435,5.913s1.392,5.042,2.436,6.52,1.478,5.393,1.478,5.393.435,3.652.955,4.433,1.218,6.448,1.218,6.448,4.609,9.216,8.782,10.346c0,0-20.695,6.783-9.826,18.956,0,0-7.738,1.911-9.565-.26s-6.608-34.346-6.608-34.346l1.478-27.131Z" transform="translate(-327.575 -345.94)" fill="#ced7e7"/>
    <path id="Path_34" data-name="Path 34" d="M419.036,436.017l2,3.391.435,5.913s1.392,5.042,2.436,6.52,1.478,5.393,1.478,5.393.435,3.652.955,4.433,1.218,6.448,1.218,6.448,4.609,9.216,8.782,10.346c0,0-20.695,6.783-9.826,18.956,0,0-7.738,1.911-9.565-.26s-6.608-34.346-6.608-34.346l1.478-27.131Z" transform="translate(-327.575 -345.94)" opacity="0.05"/>
    <path id="Path_35" data-name="Path 35" d="M261.059,251.332a18.629,18.629,0,0,0,.5,9.052l-3.219,9.216s-24.521-13.652-22.433-16.957c1.182-1.875,1.333-6.835,1.237-10.776-.069-2.995-.282-5.4-.282-5.4s30.093,2.959,26.088,9.828A16.214,16.214,0,0,0,261.059,251.332Z" transform="translate(-194.707 -194.307)" fill="#ffa2a2"/>
    <path id="Path_36" data-name="Path 36" d="M266.4,246.3a16.215,16.215,0,0,0-1.892,5.035,20.289,20.289,0,0,1-23.914-9.465c-.069-2.995-.282-5.4-.282-5.4S270.4,239.429,266.4,246.3Z" transform="translate(-198.154 -194.307)" opacity="0.1"/>
    <path id="Path_37" data-name="Path 37" d="M271.355,151.165a20.262,20.262,0,1,1-36.794-11.7q.43-.6.905-1.18a20.268,20.268,0,0,1,6.594-5.254h0a19.9,19.9,0,0,1,4.335-1.571,20.192,20.192,0,0,1,24.96,19.708Z" transform="translate(-190.938 -113.958)" fill="#ffa2a2"/>
    <path id="Path_38" data-name="Path 38" d="M158.205,346.94c-.3,1.619.076,4.578.652,7.59.024.131.05.263.076.394s.064.334.1.5c.265,1.294.554,2.577.836,3.742s.535,2.164.75,2.985c.325,1.23.547,2,.547,2s.029.759.067,1.968c.021.7.045,1.548.069,2.486,0,.272.017.549.024.836.012.5.024,1.017.036,1.548,0,.172,0,.344.012.518,0,.571.021,1.154.031,1.734.012.8.022,1.6.026,2.369v2.976a17.569,17.569,0,0,1-.258,3.652c-.055.139-.105.289-.153.447a15.1,15.1,0,0,0-.449,2.262l-.406-.332c-.776-.64-1.545-1.294-2.326-1.93a33.819,33.819,0,0,0-4.122-2.957c-.1-.057-.2-.115-.3-.17-.267-.155-.54-.3-.817-.439a18.711,18.711,0,0,0-1.753-.774,22.96,22.96,0,0,0-8.708-1.369c-1.194.456-1.97.783-1.97.783l-1.519.459-.253.076c-1.646.5-3.96,1.213-4.793,1.509-1.347.478-13.043,2.911-13.043,2.911a19.423,19.423,0,0,1-3.262.6,46.06,46.06,0,0,1-6.116,1.28,34.081,34.081,0,0,1-14-1.127,2.291,2.291,0,0,1-.406-.012,1.246,1.246,0,0,0,.239-.034l-.291-.086-.4-.124q-1-.315-1.989-.69l-.4-.153q-.955-.368-1.87-.79l-.4-.182q-.955-.444-1.87-.939c-.22-.115-.437-.239-.652-.356q-.974-.545-1.911-1.142c-.105-.9-.16-1.5-.16-1.5l-.931-4.638-.048-.239-.669-3.344L85.383,369l-1.455-7.275-.048-.239-.669-3.344-.048-.239-1.474-7.27-.048-.239-.669-3.344-.048-.239-1.462-7.284-.048-.239-.669-3.332-.048-.239-.265-1.314-.4-1.989s-1.273-1.82-2.706-3.972l-.16-.239c-.408-.6-.829-1.232-1.237-1.849-.136-.2-.268-.4-.4-.6q-.3-.451-.578-.881l-.129-.2-.026-.041c-2.059-3.186-.681-4.571-.681-4.571s.865-1.17,1.98-2.718c.055-.079.112-.158.172-.239.478-.669,1-1.4,1.519-2.13l.4-.568c.15-.213.3-.425.442-.635.057-.079.112-.16.165-.239a28.261,28.261,0,0,0,2.195-3.47,28.853,28.853,0,0,1,4-5.085,21.081,21.081,0,0,1,3.563-3.344c1.478-.781,2.087-3.305,2.087-3.305s3.217-1.127,3.652-2,6.522-4.777,6.522-4.777a32.166,32.166,0,0,0,3.458-2.541,2.038,2.038,0,0,0,.365-.427c.346-.621,2.608-1.132,3.528-1.316.239-.048.387-.074.387-.074a7.783,7.783,0,0,1,1.392-1.827,8.374,8.374,0,0,0,1.237-2.584c.428-1.208.759-2.372.759-2.372.7-2.348,2.087-1.653,2.087-1.653a4.774,4.774,0,0,0,.091.955h0c.58,2.866,3.733,4.06,5.388,5.4,1.827,1.476,4.7,5.3,6.957,6.085,1.872.647,4.043,3.088,4.731,3.9l.053.062c.115.134.172.21.172.21s1.283-.067,2.064-.081h.284a.831.831,0,0,0,.435-.177c.776-.528,1.932-2.076,2.436-2.431.607-.437,1.218-7.48,1.218-7.48l.031-.014c2.166-1.015,4.49,9.145,4.49,9.145s4.086,1.218,4.435,2.087a3.123,3.123,0,0,0,.838.848,45.942,45.942,0,0,0,6.711,4.263c.053.026.1.053.155.074a1.582,1.582,0,0,0,.146.069c.088.043.174.081.256.117q.193.086.358.143l.143.05a3.453,3.453,0,0,1,.955.494c.086.062.172.127.256.2a6.748,6.748,0,0,1,.893.9c.041.048.079.1.117.146h0a8.039,8.039,0,0,1,.478.659,9.762,9.762,0,0,1,.6,1s3.563,6.088,4.7,6.78,1.827,7.741,1.827,7.741h0l-3.821,14.165s-.179,3.582-.513,7.237C158.723,343.355,158.487,345.44,158.205,346.94Z" transform="translate(-69.789 -226.427)" fill="#ced7e7"/>
    <path id="Path_39" data-name="Path 39" d="M279.961,336.023a13.9,13.9,0,0,1-4.564,1.521,3.759,3.759,0,0,1-.783-.045,20.144,20.144,0,0,1-5.173-2.042l3.609-3.957,4.39,2.176,1.615,1.5Z" transform="translate(-220.326 -266.641)" fill="#63667e"/>
    <path id="Path_40" data-name="Path 40" d="M271.1,147.935a2.4,2.4,0,0,1-.308.356c-1.256,1.194-3.487.7-5.2.423a18.938,18.938,0,0,1-4.33-1.251c-1.208-.516-2.658-1.146-3.745-.406-.418.282-.7.733-1.139.982a3.136,3.136,0,0,1-1.5.272,21.932,21.932,0,0,1-4.975-.358c-2.434-.568-4.951-2-7.265-1.056-1.81.736-2.792,2.706-3.282,4.6a8.323,8.323,0,0,1-.955,2.7,2.178,2.178,0,0,1-2.472.977c-1.311-.547-1.5-2.773-3.086-2.885-1.736-.122-1.715,1.672-1.208,2.969.75,1.911,1.732,3.821,1.775,5.813a20.274,20.274,0,0,1,1.156-21.6,2.183,2.183,0,0,0,.862-1.008,1.506,1.506,0,0,0,.043-.172c.131-.666-.239-1.366-.26-2.063-.084-1.7,1.76-2.89,3.451-3.1,1.125-.143,2.276-.033,3.4-.069h0a7.7,7.7,0,0,0,1.684-.224,8.1,8.1,0,0,0,2.627-1.349A20.3,20.3,0,0,1,271.09,147.94Z" transform="translate(-190.945 -113.973)" opacity="0.1"/>
    <path id="Path_41" data-name="Path 41" d="M265.583,135.441a2.628,2.628,0,0,1-.716,1.242c-1.256,1.194-3.487.7-5.2.42a18.7,18.7,0,0,1-4.33-1.242c-1.208-.513-2.658-1.144-3.745-.4-.418.282-.7.733-1.139.982a3.108,3.108,0,0,1-1.5.27,21.272,21.272,0,0,1-4.975-.356c-2.434-.571-4.951-2-7.265-1.058-1.81.736-2.792,2.708-3.282,4.6a8.29,8.29,0,0,1-.955,2.7,2.183,2.183,0,0,1-2.472.979c-1.311-.547-1.5-2.773-3.086-2.885-1.736-.122-1.715,1.672-1.208,2.969.888,2.262,2.1,4.512,1.7,6.909-.394,0-1.046-.014-1.433-.024.3-.513-.272-1.125-.843-1.3s-1.237-.172-1.672-.588a1.96,1.96,0,0,1-.392-1.634,11.242,11.242,0,0,1,.891-3.568,3.307,3.307,0,0,0,.478-2.243,6.373,6.373,0,0,0-.516-.977,3.731,3.731,0,0,1,.045-3.136c.182-.42.313-.817.463-1.194a5.311,5.311,0,0,1,.814-1.488c.547-.681,1.082-1.705.478-2.338-.153-.16.153-.27.055-.478a.408.408,0,0,1-.036-.112,1.084,1.084,0,0,1,.172-.716,1.742,1.742,0,0,1,.093-.16,1.356,1.356,0,0,1,.093-.158,7.592,7.592,0,0,1,2.066-2.252c.518-.375,1.125-.736,1.33-1.342.239-.716-.182-1.478-.217-2.235-.084-1.7,1.76-2.89,3.451-3.1s3.444.141,5.092-.3c2.338-.616,3.981-2.68,6.1-3.838a8.643,8.643,0,0,1,7.595-.272c2.479,1.132,4.349,3.42,6.938,4.28a12.759,12.759,0,0,1,2.737.934,6.021,6.021,0,0,1,2.032,2.627,32.251,32.251,0,0,1,1.433,4.7,17.443,17.443,0,0,1,1.039,4.461,4.471,4.471,0,0,1-.117,1.321Z" transform="translate(-185.016 -102.886)" fill="#896363"/>
    <g id="Group_1" data-name="Group 1" transform="translate(38.105 21.306)" opacity="0.1">
      <path id="Path_42" data-name="Path 42" d="M234.635,180.863a1.063,1.063,0,0,0-.179-.893c.062.186-.208.294-.06.449A.955.955,0,0,1,234.635,180.863Z" transform="translate(-231.723 -172.607)"/>
      <path id="Path_43" data-name="Path 43" d="M234.6,177.68h0a.985.985,0,0,0-.05.258C234.6,177.862,234.657,177.783,234.6,177.68Z" transform="translate(-231.874 -170.864)"/>
      <path id="Path_44" data-name="Path 44" d="M272.66,192.287c-1.259,1.194-3.487.7-5.2.42a18.569,18.569,0,0,1-4.325-1.249c-1.211-.516-2.658-1.146-3.747-.406-.416.282-.7.733-1.139.982a3.113,3.113,0,0,1-1.5.27,21.829,21.829,0,0,1-4.977-.358c-2.431-.568-4.949-1.994-7.263-1.056-1.81.738-2.792,2.708-3.282,4.6a8.268,8.268,0,0,1-.955,2.7,2.185,2.185,0,0,1-2.472.979c-1.311-.549-1.5-2.773-3.086-2.885-1.235-.088-1.579.8-1.5,1.777a1.256,1.256,0,0,1,1.5-1.256c1.581.112,1.775,2.338,3.086,2.885a2.174,2.174,0,0,0,2.472-.979,8.37,8.37,0,0,0,.955-2.7c.49-1.894,1.471-3.867,3.282-4.6,2.314-.941,4.832.478,7.263,1.056a21.151,21.151,0,0,0,4.977.356,3.023,3.023,0,0,0,1.5-.267c.447-.253.716-.7,1.139-.984,1.089-.738,2.536-.107,3.747.406a18.693,18.693,0,0,0,4.325,1.251c1.717.277,3.945.776,5.2-.423a3.282,3.282,0,0,0,.843-2.627A3.008,3.008,0,0,1,272.66,192.287Z" transform="translate(-230.847 -180.378)"/>
      <path id="Path_45" data-name="Path 45" d="M249.43,149.14a2.544,2.544,0,0,0-.014.358c.024.5.213.994.272,1.478A7.432,7.432,0,0,0,249.43,149.14Z" transform="translate(-243.189 -149.14)"/>
      <path id="Path_46" data-name="Path 46" d="M226.483,211.694a1.764,1.764,0,0,1,.045.217,1.715,1.715,0,0,0-.045-.738,6.191,6.191,0,0,0-.516-.979,2.95,2.95,0,0,1-.313-1.134,3.145,3.145,0,0,0,.313,1.657A6.069,6.069,0,0,1,226.483,211.694Z" transform="translate(-225.094 -194.749)"/>
      <path id="Path_47" data-name="Path 47" d="M236.98,254.794l-1.4-.021a.6.6,0,0,1-.043.521c.394,0,1.048.014,1.433.024a5.852,5.852,0,0,0,.069-1.237A5.6,5.6,0,0,1,236.98,254.794Z" transform="translate(-232.628 -229.017)"/>
      <path id="Path_48" data-name="Path 48" d="M225.412,246.463c-.571-.172-1.235-.174-1.66-.592a1.514,1.514,0,0,1-.4-1,1.88,1.88,0,0,0,.4,1.524c.425.418,1.089.42,1.66.592a1.418,1.418,0,0,1,.867.716C226.52,247.208,225.966,246.628,225.412,246.463Z" transform="translate(-223.345 -222.007)"/>
    </g>
    <path id="Path_49" data-name="Path 49" d="M338.431,451.578c-.267-.155-.54-.3-.817-.439a18.7,18.7,0,0,0-1.753-.774A22.96,22.96,0,0,0,327.153,449c-1.194.456-1.97.783-1.97.783l-1.519.459-.253.076c-.017-.167-.036-.334-.053-.5s-.036-.332-.055-.5c-.535-5.066-.955-10.27-.955-10.27v-5.018l-.029-13.243-.239-4.366-.112-1.932-.021-.368-.043-.755-.024-.449a4.034,4.034,0,0,1-.134-.435h0c-.017-.06-.033-.127-.048-.2-.06-.239-.124-.547-.191-.881-.437-2.2-.984-5.9-1.017-6.654-.043-1-.912-7-.912-7-.088-3.3-2.866-9.522-3.566-10.695s-1.481-8.218-1.218-8.6a11,11,0,0,0,.279-2.513c0-.127.012-.251.017-.373.036-.867.053-1.591.053-1.591l2.732-.54.733-.143.057-.012.024.048c.079.146.325.611.614,1.223.033.064.065.134.1.2.014.033.031.067.048.1a10.517,10.517,0,0,1,1.127,3.6c-.043,1.567,1.741,5.35,1.741,5.35.172.869,3.955,9.52,3.955,9.52s3.088,8.478,2.914,9.871,1.478,10.609,1.478,10.609l1.7,9.479a56.024,56.024,0,0,1,1.911,6.171l.413,2.441.079.466,1.1,6.513.54,3.191s.227,1.7.571,3.582c.029.17.062.342.1.513a26.287,26.287,0,0,0,.9,3.666A13.723,13.723,0,0,1,338.431,451.578Z" transform="translate(-254.809 -298.443)" opacity="0.1"/>
    <path id="Path_50" data-name="Path 50" d="M339.567,451.733c-.1-.057-.2-.115-.3-.17-.268-.155-.54-.3-.817-.439a18.709,18.709,0,0,0-1.753-.774,22.962,22.962,0,0,0-8.708-1.369c-1.194.456-1.97.783-1.97.783l-1.519.459c-.019-.167-.036-.334-.055-.5s-.033-.306-.048-.459c-.535-5.054-.955-10.234-.955-10.234v-5.061l-.029-13.21-.239-4.17-.048-.865-.033-.585-.043-.774-.043-.786-.031-.566v-.124a.046.046,0,0,0-.017-.041c-.045-.129-.1-.325-.16-.573l-.029-.119c-.012-.055-.026-.115-.038-.174-.449-2.037-1.108-6.429-1.144-7.253-.043-1-.912-7-.912-7-.088-3.3-2.866-9.522-3.566-10.695s-1.478-8.218-1.218-8.6a13.889,13.889,0,0,0,.3-2.885v-.277c.031-.738.043-1.314.043-1.314l2.541-.5.645-.127.1-.019.239-.048s.313.578.688,1.373l.048.1a10.955,10.955,0,0,1,1.175,3.7c-.043,1.567,1.741,5.35,1.741,5.35.172.869,3.955,9.52,3.955,9.52s3.088,8.478,2.914,9.871,1.478,10.609,1.478,10.609l1.7,9.479a56.035,56.035,0,0,1,1.911,6.171l.384,2.274.079.461.867,5.14.8,4.736s.239,1.689.568,3.583c.031.172.062.344.1.518a26.41,26.41,0,0,0,.9,3.683A14.569,14.569,0,0,1,339.567,451.733Z" transform="translate(-255.648 -298.427)" fill="#63667e"/>
    <path id="Path_51" data-name="Path 51" d="M265.775,101.451s-.912,1.175-1.736,1.175a25.81,25.81,0,0,1-5.7-.652c-1.672-.521-9.868-.915-9.868-.915s-11.607.043-12-.349-7.217-2.479-7.912-2.348c-.146.029-.5.091-.977.17l-.545.088c-.824.131-1.853.284-2.794.4a8.731,8.731,0,0,1-2.51.086v-1a13.6,13.6,0,0,0,1.433-2.52c.086-.561,1.218-8.7,4.175-11.61a11.655,11.655,0,0,1,5.608-5.254c4-1.741,8-3.217,8-3.217l.7-.1,2.257-.334a1.7,1.7,0,0,1,.222-.186c.626-.478,2.522-1.517,4.994.716l.437.7s7.607,1.782,11.127,8,3.7,12.3,3.957,15.087c0,0-.174.783.174,1.087a4.878,4.878,0,0,1,.361.353c.031.031.062.062.091.1.1.1.193.205.27.291a.113.113,0,0,1,.024.024.779.779,0,0,0,.06.064Z" transform="translate(-184.011 -70.807)" fill="#fed253"/>
    <path id="Path_52" data-name="Path 52" d="M283.921,170.248s-.912,1.175-1.736,1.175a25.81,25.81,0,0,1-5.7-.652c-1.672-.521-9.869-.915-9.869-.915s-11.607.043-12-.349-7.217-2.479-7.912-2.348c-.146.029-.5.091-.977.17l-.124-.764-.031-.189s13.174-2.825,21.956-1.345,15.261,3.129,15.261,3.129-.174.783.174,1.087a4.873,4.873,0,0,1,.361.354c.031.031.062.062.091.1.1.1.193.205.27.291a.114.114,0,0,1,.024.024.777.777,0,0,0,.06.064Z" transform="translate(-202.157 -139.604)" opacity="0.05"/>
    <path id="Path_53" data-name="Path 53" d="M263.236,180.046a34.4,34.4,0,0,1-5.935-.463c-.373-.055-.738-.122-1.106-.2-1.407-.306-5.732-1.163-8.359-.767-3.174.478-12.13-.392-12.13-.392a64.27,64.27,0,0,1-7.741-2.042,7.7,7.7,0,0,0-3.53-.275,9.824,9.824,0,0,0-1.027.184c-1.849.437-3.408,1.433-3.138,3.131a3.992,3.992,0,0,1-.287-.389,3.3,3.3,0,0,1,1.034-3.021h0l.158-.064a19.29,19.29,0,0,1,2.489-.533c.131-.021.267-.041.406-.057a15.348,15.348,0,0,1,8.713,1.068,13.865,13.865,0,0,0,4.521,1.263c1.827,0,16.694.131,20.174,1.13a14.8,14.8,0,0,0,2.114.447,8.6,8.6,0,0,0,3.774-.356A4.47,4.47,0,0,1,263.236,180.046Z" transform="translate(-182.669 -147.491)" opacity="0.1"/>
    <path id="Path_54" data-name="Path 54" d="M265.775,176.431s-.912,1.175-1.736,1.175a25.812,25.812,0,0,1-5.7-.652c-1.672-.521-9.868-.915-9.868-.915s-11.607.043-12-.349-7.217-2.479-7.912-2.348c-.146.029-.5.091-.977.17l-.545.088a9.7,9.7,0,0,0-2.794.4,8.731,8.731,0,0,1-2.51.086v-.2a5.73,5.73,0,0,1,.781-.377,21.123,21.123,0,0,1,4.944-.769,13.816,13.816,0,0,1,6.666,1.247,13.865,13.865,0,0,0,4.521,1.263c1.827,0,16.694.129,20.174,1.13a15.122,15.122,0,0,0,2.114.444,8.789,8.789,0,0,0,4.607-.662.113.113,0,0,1,.024.024.8.8,0,0,0,.06.064Z" transform="translate(-184.011 -145.787)" opacity="0.1"/>
    <path id="Path_55" data-name="Path 55" d="M217.966,178.338s-2.914-2.219.869-3.7c0,0,6.608-2.042,11.61.478a13.9,13.9,0,0,0,4.521,1.259c1.827,0,16.694.131,20.174,1.132a15.048,15.048,0,0,0,2.114.444,9,9,0,0,0,5.367-1.02c.239-.131.454-.2.518-.122.217.263.045,1.784-1.868,2.087a29.7,29.7,0,0,1-6.31-.42c-.37-.055-.738-.124-1.1-.2-1.407-.306-5.732-1.163-8.371-.767-3.172.478-12.13-.392-12.13-.392a63.946,63.946,0,0,1-7.738-2.044C223.4,174.158,217.139,174.947,217.966,178.338Z" transform="translate(-180.33 -146.65)" fill="#fed253"/>
    <path id="Path_56" data-name="Path 56" d="M309.7,81.246c-.239-.344-3.308-2.8-4.559-3.8l2.257-.334a1.705,1.705,0,0,1,.222-.186A9.335,9.335,0,0,1,309.7,81.246Z" transform="translate(-247.5 -72.87)" opacity="0.1"/>
    <path id="Path_57" data-name="Path 57" d="M215.531,89.293l-1,1.478,3.826-.129.086-1.653Z" transform="translate(-163.286 -67.737)" opacity="0.1"/>
    <path id="Path_58" data-name="Path 58" d="M316.47,97.73l.435,1.347,2.436.392-1.044-1.61Z" transform="translate(-240.88 -74.389)" opacity="0.1"/>
    <path id="Path_59" data-name="Path 59" d="M205.18,347c.26.435,8.825,11.7,11.087,11.39S205.18,347,205.18,347Z" transform="translate(-171.414 -278.439)" opacity="0.1"/>
    <path id="Path_60" data-name="Path 60" d="M325.33,390.12s2.087,2,1.782,2.782S325.33,390.12,325.33,390.12Z" transform="translate(-262.868 -311.261)" opacity="0.1"/>
    <path id="Path_61" data-name="Path 61" d="M226.284,447.65s-1.827,8.565-.869,8.837S226.284,447.65,226.284,447.65Z" transform="translate(-186.605 -355.051)" opacity="0.1"/>
    <path id="Path_62" data-name="Path 62" d="M328.24,586.91c.3.869,2.825,6.523,3.391,6.826S328.24,586.91,328.24,586.91Z" transform="translate(-265.083 -461.051)" opacity="0.1"/>
    <path id="Path_63" data-name="Path 63" d="M445.036,489.7c-.088.3-2.262,2.087-1.784,2.739S445.036,489.7,445.036,489.7Z" transform="translate(-352.574 -387.058)" opacity="0.1"/>
    <path id="Path_64" data-name="Path 64" d="M379.814,556.14c-.043.22-.478,4.777.349,5.653S379.814,556.14,379.814,556.14Z" transform="translate(-304.224 -437.63)" opacity="0.1"/>
    <path id="Path_65" data-name="Path 65" d="M249.469,611.479c-.631.351-1.283.69-1.946,1.015-.717.349-1.433.681-2.164.994-.291.127-.583.251-.872.37q-.659.272-1.3.523c-1.306.511-2.565.955-3.685,1.33-.435.146-.85.279-1.237.4-1.949.619-3.243.955-3.243.955a3.515,3.515,0,0,0-.9-.074h-.258a11.3,11.3,0,0,0-1.206.153,55.655,55.655,0,0,0-8.708,2.694c-1.194.456-1.97.783-1.97.783l-1.519.458-.253.076c-1.646.5-3.96,1.213-4.793,1.509-1.347.478-13.043,2.911-13.043,2.911a19.429,19.429,0,0,1-3.262.6,59.536,59.536,0,0,1-8.173.186,53.735,53.735,0,0,1-9.742-.831l-.411-.064c-1-.162-1.629-.28-1.629-.28l.334-.461,6.857-9.46.041-.057,6.389-8.81.239-.32.58-.8s.349-.478,1.691-.509h.518a13.993,13.993,0,0,1,3.313.676l.31.093c4.626,1.326,11.777.994,11.777.994s4.449-.717,7.946-1.146l.26-.033a32.082,32.082,0,0,1,3.446-.3,38.635,38.635,0,0,0,6.74-1.087,4.493,4.493,0,0,0,1.968-.791l.239-.172c.239-.179.514-.4.867-.671.645-.494,1.55-1.166,2.973-2.107.124-.081.256-.162.4-.239s.32-.179.492-.265a18.649,18.649,0,0,1,4.328-1.433,25.376,25.376,0,0,1,3.766-.518h.189c3.582-.191,7.241.423,9.381,2.436a5.873,5.873,0,0,1,.97,1.194,5.446,5.446,0,0,1,.349.65,6.093,6.093,0,0,1,.432,1.337q.026.129.043.258v.076c0,.069.014.139.019.208C256.194,606.793,253.228,609.377,249.469,611.479Z" transform="translate(-151.601 -469.296)" opacity="0.1"/>
    <path id="Path_66" data-name="Path 66" d="M179.15,622.98s7.738,1.433,11.781,1.173c0,0,7.435.392,11.435-.781,0,0,11.7-2.436,13.043-2.914s6.565-2.044,6.565-2.044,10.174-4.261,13.043-3.566c0,0,22.522-5.825,20.912-13.695s-15.825-6.085-20.3-3.131-3.821,3.262-6.042,3.74a38.632,38.632,0,0,1-6.74,1.087c-2.13-.043-11.653,1.478-11.653,1.478s-7.478.349-12.085-1.087-5.522-.174-5.522-.174Z" transform="translate(-151.6 -467.6)" fill="#ffa2a2"/>
    <path id="Path_67" data-name="Path 67" d="M129.024,454.681a.117.117,0,0,1,0,.029,1.612,1.612,0,0,1-.136.513c-.917,2.25-6.124,8.318-6.124,8.318a16.619,16.619,0,0,1-.857,2.107,32.3,32.3,0,0,1-2.472,4.191,56.761,56.761,0,0,1-4.5,5.7h-.012a6.844,6.844,0,0,1-.642.423,5.317,5.317,0,0,1-2.2.8,2.288,2.288,0,0,1-.406-.012,1.251,1.251,0,0,0,.239-.033l-.291-.086-.4-.124q-1-.315-1.989-.69l-.4-.153q-.955-.368-1.87-.791l-.4-.181q-.955-.444-1.87-.939c-.22-.115-.437-.239-.652-.356q-.974-.545-1.911-1.142-.994-.633-1.944-1.321c-.478-.886-.872-1.672-1.087-2.094a5.826,5.826,0,0,1-.377-2.725,1.3,1.3,0,0,1,.014-.239c.041-.511.1-.862.1-.862a12.271,12.271,0,0,1-.955-1.49,1.753,1.753,0,0,1-.267-.857,1.017,1.017,0,0,0-.033-.363,8.472,8.472,0,0,0-1.705-2.866c-.545-.6-.578-2.84-.525-4.428.031-.955.091-1.658.091-1.658a.556.556,0,0,1-.227-.294,7.1,7.1,0,0,1-.387-1.619,1.687,1.687,0,0,0-.033-.239c-.153-1.1-.222-2.2-.222-2.2a8.33,8.33,0,0,1-3-5.087l-.05-.239a15.045,15.045,0,0,1-.272-3.344v-.3a41.658,41.658,0,0,1,.888-7.2c.026-.086.055-.165.084-.239a1.788,1.788,0,0,1,.186-.361,4.447,4.447,0,0,0,.549-1.626c.1-.492.179-1.039.239-1.583.055-.454.1-.905.131-1.323.093-1.118.122-1.989.122-1.989l-.442-2.178c-.122-.595-.215-1.194-.279-1.794a2.1,2.1,0,0,0-.029-.239,20.182,20.182,0,0,1-.06-3.332,1.326,1.326,0,0,1,.014-.239,20.193,20.193,0,0,1,1.949-7.284l.119-.239q.239-.478.5-.939c.127-.227.26-.451.4-.673a19.7,19.7,0,0,1,1.194-1.722c.062-.081.127-.16.191-.239a19.458,19.458,0,0,1,2.474-2.551c2.412-2.073,4.626-2.973,6.637-3.043,8.794-.311,13.726,15.242,14.523,17.967.076.263.115.406.115.406s3.563,3.566,2.52,5.13a2.692,2.692,0,0,0-.361,1.127,19.911,19.911,0,0,0,.535,5.57s.291.955,1.142,3.243l.251.669a13.734,13.734,0,0,1,.351,5.992c-.294,2.064-.984,3.888-2.09,4.356-2.262.955-1.653,1.911-1.132,2.7a10.73,10.73,0,0,1,.771,1.763c.327.881.631,1.808.745,2.169.033.1.05.155.05.155a4.722,4.722,0,0,1,.982-.263c.428-.06.85-.017.931.349.043.2.289.428.635.659A18.346,18.346,0,0,0,129.024,454.681Z" transform="translate(-84.694 -319.726)" opacity="0.1"/>
    <path id="Path_68" data-name="Path 68" d="M126.852,454.68h0a1.574,1.574,0,0,1-.136.525c-.912,2.252-6.124,8.335-6.124,8.335a16.981,16.981,0,0,1-.857,2.107,30.437,30.437,0,0,1-1.951,3.408,56.162,56.162,0,0,1-4.963,6.424l-.055.06s-.21.16-.545.365a6.209,6.209,0,0,1-1.946.817l-.291-.086-.4-.124q-1-.315-1.989-.69l-.4-.153q-.955-.368-1.87-.791l-.4-.181q-.955-.444-1.87-.939c-.22-.115-.437-.239-.652-.356q-.974-.545-1.911-1.142-.994-.633-1.944-1.321-.439-.315-.869-.647c-.322-.611-.58-1.127-.74-1.447a5.826,5.826,0,0,1-.377-2.725,1.3,1.3,0,0,1,.014-.239c.041-.511.1-.862.1-.862s-.193-.26-.428-.614c-.131-.2-.272-.423-.4-.647a2.217,2.217,0,0,1-.389-1.087.532.532,0,0,0,0-.124,1.157,1.157,0,0,0-.036-.239,8.482,8.482,0,0,0-1.708-2.866c-.545-.6-.578-2.84-.528-4.428v-.239c.033-.824.084-1.419.084-1.419-.27-.117-.478-.984-.611-1.911l-.036-.239c-.153-1.1-.222-2.2-.222-2.2a8.315,8.315,0,0,1-3-5.087,14.583,14.583,0,0,1-.31-3.821v-.06a41.056,41.056,0,0,1,.86-7.225c.026-.086.055-.165.084-.239a1.785,1.785,0,0,1,.213-.349,8.048,8.048,0,0,0,.762-2.971l.029-.239c.2-1.672.253-3.313.253-3.313l-.444-2.178q-.182-.9-.279-1.794c-.012-.079-.019-.16-.029-.239a20.19,20.19,0,0,1-.06-3.332,1.137,1.137,0,0,1,.017-.239,20.145,20.145,0,0,1,1.949-7.284c.038-.081.076-.16.119-.239a18.712,18.712,0,0,1,1.022-1.806c.129-.2.26-.4.4-.6.217-.315.444-.626.681-.927l.191-.239a19.481,19.481,0,0,1,2.453-2.543c2.627-2.252,5.015-3.122,7.165-3.043,8.467.3,13.219,15.3,14,17.967.076.263.115.406.115.406s3.566,3.566,2.522,5.13a2.692,2.692,0,0,0-.361,1.127,19.816,19.816,0,0,0,.535,5.57s.291.955,1.142,3.243c.076.213.16.435.239.669a13.734,13.734,0,0,1,.351,5.992c-.294,2.066-.982,3.888-2.09,4.356-2.259.955-1.653,1.911-1.13,2.7a10.731,10.731,0,0,1,.771,1.763c.413,1.125.793,2.324.793,2.324a4.64,4.64,0,0,1,.478-.155,2.442,2.442,0,0,1,1.032-.107.456.456,0,0,1,.408.349c.064.287.559.642,1.158.979a22.122,22.122,0,0,0,2.405,1.127Z" transform="translate(-83.043 -319.725)" fill="#ced7e7"/>
    <path id="Path_69" data-name="Path 69" d="M115.61,511.732c.826-.043,9.7-3.477,11.524-2.3s13.136,8.782,13.136,8.782-7.086-9.259-13.26-11.433S115.61,511.732,115.61,511.732Z" transform="translate(-103.236 -399.742)" opacity="0.1"/>
    <path id="Path_70" data-name="Path 70" d="M169,587.46s8.87,1.782,10.217,3Z" transform="translate(-143.875 -461.47)" opacity="0.1"/>
    <path id="Path_71" data-name="Path 71" d="M151.969,643c-.129.131-3.344,7.346-3.086,7.346a43.318,43.318,0,0,0,3-4.3Z" transform="translate(-128.551 -503.745)" opacity="0.1"/>
    <path id="Path_72" data-name="Path 72" d="M179.737,606.75s-2.608.915-2.3,1S179.648,607.142,179.737,606.75Z" transform="translate(-150.274 -476.153)" opacity="0.1"/>
    <path id="Path_73" data-name="Path 73" d="M176.24,652.45c.435.912,1.825,3.652,2.13,3.217S176.24,652.45,176.24,652.45Z" transform="translate(-149.385 -510.938)" opacity="0.1"/>
    <path id="Path_74" data-name="Path 74" d="M239.179,297.307l-.373.53s-2.959-2.085-4.175-3.129-4.086,3.738-6.348,5.042A18.266,18.266,0,0,1,222.2,301.4s-2.957-2.957-2.866-3.821-1.39-1.13-1.478-1.739a8.648,8.648,0,0,0-1.3-3.217c-.368-.459-.42-1.894-.387-3.143.239-.048.387-.074.387-.074a7.786,7.786,0,0,1,1.392-1.827c.783-.695,2-4.956,2-4.956.695-2.348,2.085-1.653,2.085-1.653,0,3.566,3.654,4.87,5.479,6.348s4.7,5.3,6.957,6.088C236.318,294.042,238.489,296.491,239.179,297.307Z" transform="translate(-179.767 -228.109)" opacity="0.1"/>
    <path id="Path_75" data-name="Path 75" d="M239.141,295.12l-.373.533s-2.971-2.08-4.187-3.131-4.086,3.738-6.348,5.042a18.294,18.294,0,0,1-6.085,1.655s-2.957-2.959-2.866-3.821-1.39-1.13-1.478-1.741a8.633,8.633,0,0,0-1.3-3.217c-.368-.459-.42-1.894-.387-3.143l.387-.072a7.783,7.783,0,0,1,1.392-1.827c.783-.7,2-4.956,2-4.956.7-2.348,2.085-1.655,2.085-1.655,0,3.566,3.654,4.872,5.479,6.351s4.7,5.3,6.957,6.085C236.28,291.864,238.451,294.3,239.141,295.12Z" transform="translate(-179.729 -226.444)" fill="#ced7e7"/>
    <path id="Path_76" data-name="Path 76" d="M296.447,348.811a13.9,13.9,0,0,1-4.564,1.521,3.757,3.757,0,0,1-.783-.045h0a11.9,11.9,0,0,1,4.261-1.987Z" transform="translate(-236.813 -279.429)" opacity="0.1"/>
    <path id="Path_77" data-name="Path 77" d="M321.639,374.843s-3.231-1.259-4.3.635c.036-.869.05-1.591.05-1.591l3.523-.7s.339.628.736,1.474C321.639,374.776,321.639,374.843,321.639,374.843Z" transform="translate(-256.786 -298.374)" opacity="0.1"/>
    <path id="Path_78" data-name="Path 78" d="M291.1,349.8s3.871-2.324,5.732-2.128c1.951.2,5.732.346,5.732.346s-1.3,2.957-1.13,3.566a30.561,30.561,0,0,1,.217,3.566s-3.912-1.521-4.564,1.3c0,0-2.13-3.174-3.566-4.132A9.763,9.763,0,0,1,291.1,349.8Z" transform="translate(-236.813 -278.942)" fill="#63667e"/>
    <path id="Path_79" data-name="Path 79" d="M337.084,322.186c-1.13,0-5.13-2.524-6-4.175s-2.087.172-3.217.783c-.716.392-3.556-.428-5.087-1.022.776-.528,2.5-2.013,3-2.369.607-.437,1.218-7.48,1.218-7.48,2.173-1.13,4.521,9.13,4.521,9.13s4.089,1.218,4.435,2.087a3.122,3.122,0,0,0,.838.848C337.27,321.193,337.533,322.186,337.084,322.186Z" transform="translate(-260.927 -248.629)" opacity="0.1"/>
    <path id="Path_80" data-name="Path 80" d="M338.88,320.019c-1.13,0-5.13-2.522-6-4.172s-2.087.172-3.217.781c-.717.392-2.993-.365-4.523-.955.776-.525,1.932-2.073,2.436-2.431.607-.435,1.218-7.478,1.218-7.478,2.173-1.13,4.521,9.131,4.521,9.131s4.089,1.218,4.435,2.087a3.122,3.122,0,0,0,.838.848C339.066,319.025,339.329,320.019,338.88,320.019Z" transform="translate(-262.724 -246.985)" fill="#ced7e7"/>
    <path id="Path_81" data-name="Path 81" d="M446.751,582.7l37.809-31.526a2.025,2.025,0,0,1,1.352-.478l14.105.37s.977.716-.456,2.283L463.894,582.62a2.268,2.268,0,0,1-1.361.511l-15.424.511a.533.533,0,0,1-.358-.941Z" transform="translate(-355.145 -433.488)" fill="#ce1212"/>
    <path id="Path_82" data-name="Path 82" d="M523.94,616.621s8.259,11.827,17.435.826,6.522-16.78,3.74-17.086S526.677,612.1,523.94,616.621Z" transform="translate(-414.044 -471.286)" fill="#ffa2a2"/>
    <path id="Path_83" data-name="Path 83" d="M757.17,72.987s10.645-20.659,23.226-10a3.966,3.966,0,0,1,2.539,3.9s-1.058-.58-1.9,1.638a10.714,10.714,0,0,1-1.194,2.228,5.254,5.254,0,0,1-2.651,2h0s-5.646,4.23-16.1.967c0,0-2.957.425-3.434.057l3.437-2.513s1.746,2.591,4.3,2.887c0,0-4.3-2.7-3.807-3.284.1-.119,1.882-1.249,1.882-1.249s3.055,4.492,7.014,4.824c0,0-5.548-2.529-6.343-5.254l2.787-1.555s2.995,4.908,7.492,5.457c0,0-5.708-2.844-6.859-5.756l2.95-1.151s3.016,4.729,6.759,5.161c0,0-6.262-3.953-6.066-5.381a15.284,15.284,0,0,1,3.623-.776s2.243,3.344,4.44,3.4c0,0-3.9-3.086-3.647-3.561,0,0,3.921-.2,5.971.745a11.886,11.886,0,0,0-5.971-1.359,6.532,6.532,0,0,1,3.186-1.985s-2.161-.888-4.136,2.044c0,0-3.05.279-3.427.619a14.336,14.336,0,0,1,3.441-4.521s-2.83.5-4.232,4.8l-2.99,1.091s1.818-4.3,3.42-5.627c0,0-2.809.955-4.151,5.971l-2.751,1.5a24.341,24.341,0,0,1,2.747-5.687s-2.414,1.447-3.52,6.143l-1.72,1.211s.986-2.775,1.342-3.547.177-.931.177-.931a10,10,0,0,0-2.252,4.961S757.368,73.178,757.17,72.987Z" transform="translate(-591.572 -59.93)" fill="#ce1212" opacity="0.1"/>
    <path id="Path_84" data-name="Path 84" d="M941.5,142.055s4.81-9.336,10.494-4.521a1.788,1.788,0,0,1,1.146,1.763s-.478-.26-.857.743a4.774,4.774,0,0,1-.535,1.005,2.388,2.388,0,0,1-1.194.905h0s-2.553,1.911-7.279.437a4.739,4.739,0,0,1-1.55.026l1.552-1.137a3.165,3.165,0,0,0,1.944,1.3s-1.939-1.218-1.72-1.483c.043-.053.848-.564.848-.564s1.38,2.03,3.172,2.181c0,0-2.508-1.144-2.866-2.388l1.261-.7s1.352,2.219,3.384,2.467c0,0-2.579-1.285-3.1-2.6l1.333-.521s1.361,2.138,3.052,2.333c0,0-2.83-1.786-2.739-2.431a6.9,6.9,0,0,1,1.636-.351s1.013,1.512,2.006,1.536c0,0-1.765-1.392-1.648-1.607a7.43,7.43,0,0,1,2.694.337,5.355,5.355,0,0,0-2.694-.614,2.958,2.958,0,0,1,1.433-.9s-.977-.4-1.87.924a6.818,6.818,0,0,0-1.548.279,6.476,6.476,0,0,1,1.555-2.042s-1.28.224-1.911,2.169l-1.337.5a9.165,9.165,0,0,1,1.545-2.544s-1.271.432-1.877,2.7l-1.242.673a10.927,10.927,0,0,1,1.24-2.57,4.351,4.351,0,0,0-1.588,2.775l-.779.547s.447-1.254.607-1.6.079-.42.079-.42a4.537,4.537,0,0,0-1.017,2.247A11.131,11.131,0,0,1,941.5,142.055Z" transform="translate(-731.878 -117.95)" fill="#ce1212" opacity="0.1"/>
    <path id="Path_85" data-name="Path 85" d="M723.27,187.535s4.81-9.336,10.509-4.521a1.792,1.792,0,0,1,1.146,1.765s-.478-.263-.857.74a4.87,4.87,0,0,1-.535,1.005,2.388,2.388,0,0,1-1.206.905h0s-2.551,1.911-7.277.437c0,0-1.335.193-1.55.026l1.552-1.137a3.174,3.174,0,0,0,1.942,1.306s-1.939-1.22-1.72-1.486c.045-.053.85-.564.85-.564s1.38,2.03,3.169,2.181c0,0-2.505-1.144-2.866-2.388l1.261-.7s1.354,2.216,3.387,2.465c0,0-2.579-1.285-3.1-2.6l1.333-.521s1.364,2.138,3.055,2.333c0,0-2.83-1.786-2.742-2.431a6.929,6.929,0,0,1,1.638-.351s1.013,1.512,2.006,1.538c0,0-1.765-1.395-1.648-1.61a7.434,7.434,0,0,1,2.694.337,5.368,5.368,0,0,0-2.7-.614,2.959,2.959,0,0,1,1.433-.9s-.974-.4-1.868.924a6.818,6.818,0,0,0-1.548.279,6.436,6.436,0,0,1,1.555-2.042s-1.28.225-1.911,2.169l-1.354.5a9.192,9.192,0,0,1,1.545-2.541s-1.268.43-1.875,2.694l-1.244.674a10.977,10.977,0,0,1,1.242-2.57A4.359,4.359,0,0,0,726,185.619l-.779.547s.447-1.254.607-1.6.081-.42.081-.42a4.514,4.514,0,0,0-1.017,2.247A11.058,11.058,0,0,1,723.27,187.535Z" transform="translate(-565.768 -152.568)" fill="#ce1212" opacity="0.1"/>
  </g>
</svg>
