<svg xmlns="http://www.w3.org/2000/svg" width="246.338" height="165.029" viewBox="0 0 246.338 165.029">
  <g id="growth-about" transform="translate(0 0)">
    <path id="Path_149" data-name="Path 149" d="M879.567,377.552l.731-5.861a7.915,7.915,0,1,1,15.708,1.96l-.731,5.861a1.064,1.064,0,0,1-1.187.923l-13.6-1.7A1.064,1.064,0,0,1,879.567,377.552Z" transform="translate(-683.326 -304.52)" fill="#2f2e41"/>
    <circle id="Ellipse_3" data-name="Ellipse 3" cx="5.803" cy="5.803" r="5.803" transform="translate(196.951 63.175)" fill="#ffb8b8"/>
    <path id="Path_150" data-name="Path 150" d="M875.013,376.7A6.268,6.268,0,0,1,882,371.259l1.172.146a6.268,6.268,0,0,1,5.438,6.988l-.015.117-2.477-.309-.55-2.471-.464,2.345-1.28-.16-.277-1.247-.234,1.183L875,376.814Z" transform="translate(-679.958 -309.289)" fill="#2f2e41"/>
    <path id="Path_151" data-name="Path 151" d="M795.065,466.324a2.673,2.673,0,0,0,3.995.919l5.271,3.088,2.658-2.745-7.5-4.256a2.688,2.688,0,0,0-4.418,2.995Z" transform="translate(-620.693 -376.646)" fill="#ffb8b8"/>
    <path id="Path_152" data-name="Path 152" d="M830.281,459.319c-3.888,0-10.729-1.74-11.108-1.838l-.12-.031L820.13,452l10.449,2.064,5.677-7.994,6.518-.663-.182.239c-.085.112-8.486,11.171-9.794,13.026C832.469,459.141,831.526,459.319,830.281,459.319Z" transform="translate(-638.634 -364.093)" fill="#3f3d56"/>
    <path id="Path_153" data-name="Path 153" d="M850.624,474.816l-.156-.074a12.708,12.708,0,0,1-5.047-4.759c-1.7-3.122,6.268-16.364,6.826-17.283l.008-4.205,2.867-7.741,3.657-2.067-3.14,7.326Z" transform="translate(-657.935 -359.129)" fill="#3f3d56"/>
    <path id="Path_154" data-name="Path 154" d="M708.68,577.492h-3.495l-1.663-13.48h5.158Z" transform="translate(-519.655 -416.605)" fill="#ffb8b8"/>
    <path id="Path_155" data-name="Path 155" d="M823.544,750.033H812.275v-.143a4.386,4.386,0,0,1,4.386-4.386h6.883Z" transform="translate(-633.627 -585.759)" fill="#2f2e41"/>
    <path id="Path_156" data-name="Path 156" d="M841.176,567.667l-3.321,1.088-5.778-12.292,4.9-1.606Z" transform="translate(-614.611 -409.843)" fill="#ffb8b8"/>
    <path id="Path_157" data-name="Path 157" d="M971.883,737.245l-10.708,3.509-.044-.135a4.386,4.386,0,0,1,2.8-5.534h0l6.541-2.143Z" transform="translate(-743.417 -576.479)" fill="#2f2e41"/>
    <path id="Path_158" data-name="Path 158" d="M858.113,553.06l-9.963-16.633-8.41-17.77-7.568,15.7-3.007,20.33-10.544.146.042-.165L834.8,490.553l12.637,1.888-.575,8.341.343.487c2.855,4.055,5.806,8.248,4.113,12.768l4.8,14.25,10.623,23.727Z" transform="translate(-638.315 -397.44)" fill="#2f2e41"/>
    <path id="Path_159" data-name="Path 159" d="M873.868,459.054c-1.831,0-3.92-2.091-2.836-5.66l-.07-.051,2.6-11.5c-2.272-3.249.723-5.931,1-6.17L876,433.1l6.309-4,3.192,26.521-.047.045C883.147,457.868,875.4,459.054,873.868,459.054Z" transform="translate(-676.808 -352.046)" fill="#ce1212"/>
    <path id="Path_160" data-name="Path 160" d="M915.338,461.435a3.107,3.107,0,0,1-.745-.079c-.245-.062-.643-.374-1.256-2.372-2.44-7.945-5.321-31.849-3.228-34.188l.048-.054,3.437.573a5.079,5.079,0,0,1,3.168-1.075,2.1,2.1,0,0,1,1.437.849l.024.031,1.095,15.575,4.011,18.329-.1.044C923,459.174,917.989,461.435,915.338,461.435Z" transform="translate(-705.358 -348.442)" fill="#3f3d56"/>
    <path id="Path_161" data-name="Path 161" d="M915.418,514.315a2.673,2.673,0,0,0,2.525-3.229l5.031-3.465-1.36-3.571-7.036,4.993a2.688,2.688,0,0,0,.84,5.271Z" transform="translate(-707.749 -407.41)" fill="#ffb8b8"/>
    <path id="Path_162" data-name="Path 162" d="M933.211,453.189l-4.481-3.286,6.3-8.589-4.834-8.53,2.163-6.184.14.266c.065.124,6.52,12.421,7.646,14.392,1.172,2.05-6.526,11.437-6.854,11.835Z" transform="translate(-719.647 -350.201)" fill="#3f3d56"/>
    <path id="Path_163" data-name="Path 163" d="M424.645,617.684l-3.814-1.606-2.616-19.118h-34.84L380.54,616l-3.412,1.706a.81.81,0,0,0,.362,1.535h46.84a.81.81,0,0,0,.314-1.557Z" transform="translate(-311.876 -476.037)" fill="#e6e6e6"/>
    <path id="Path_164" data-name="Path 164" d="M303.849,528.9H132.707a3.391,3.391,0,0,1-3.383-3.391V501.379H307.232v24.133a3.391,3.391,0,0,1-3.383,3.391Z" transform="translate(-129.168 -405.437)" fill="#ccc"/>
    <path id="Path_165" data-name="Path 165" d="M306.969,241.629H128.726V138.368a4.092,4.092,0,0,1,4.088-4.088H302.882a4.092,4.092,0,0,1,4.088,4.087Z" transform="translate(-128.726 -134.28)" fill="#3f3d56"/>
    <path id="Path_166" data-name="Path 166" d="M317.506,255.315H160.554a3.155,3.155,0,0,1-3.151-3.151V166.107a3.155,3.155,0,0,1,3.151-3.151H317.506a3.155,3.155,0,0,1,3.151,3.151v86.057A3.155,3.155,0,0,1,317.506,255.315Z" transform="translate(-149.909 -155.462)" fill="#fff"/>
    <path id="Path_167" data-name="Path 167" d="M387.717,680.719H299.524a.409.409,0,0,1-.4-.3.4.4,0,0,1,.386-.5h88.177a.422.422,0,0,1,.422.312.4.4,0,0,1-.39.486Z" transform="translate(-254.579 -537.316)" fill="#ccc"/>
    <rect id="Rectangle_44" data-name="Rectangle 44" width="37.895" height="28.951" transform="translate(128.027 21.407)" fill="#f2f2f2"/>
    <rect id="Rectangle_45" data-name="Rectangle 45" width="34.129" height="26.074" transform="translate(129.91 22.846)" fill="#fff"/>
    <path id="Path_168" data-name="Path 168" d="M692.795,244.365h.014a9.1,9.1,0,0,0,.2-18.161.208.208,0,0,0-.157.054.205.205,0,0,0-.067.15l-.2,17.746A.208.208,0,0,0,692.795,244.365Z" transform="translate(-545.221 -202.179)" fill="#3f3d56"/>
    <path id="Path_169" data-name="Path 169" d="M659.048,237.433a.268.268,0,0,1,.188.08l6.109,6.248a.265.265,0,0,1,.076.19l-.1,8.492a.264.264,0,0,1-.086.193.268.268,0,0,1-.2.07,9.159,9.159,0,0,1-6.194-15.182.268.268,0,0,1,.194-.091Z" transform="translate(-518.611 -210.474)" fill="#e6e6e6"/>
    <path id="Path_170" data-name="Path 170" d="M673.773,225.927a.269.269,0,0,1,.183.075.264.264,0,0,1,.082.2l-.086,7.662a.267.267,0,0,1-.457.184l-5.331-5.452a.267.267,0,0,1,.014-.387,9.178,9.178,0,0,1,5.579-2.276Z" transform="translate(-527.123 -201.975)" fill="#ce1212"/>
    <path id="Path_171" data-name="Path 171" d="M670.1,305.1a1.634,1.634,0,1,1-1.616-1.653A1.634,1.634,0,0,1,670.1,305.1Z" transform="translate(-526.193 -259.238)" fill="#ce1212"/>
    <path id="Path_172" data-name="Path 172" d="M687.961,305.305a1.634,1.634,0,1,1-1.616-1.653A1.634,1.634,0,0,1,687.961,305.305Z" transform="translate(-539.389 -259.387)" fill="#3f3d56"/>
    <path id="Path_173" data-name="Path 173" d="M705.827,305.505a1.634,1.634,0,1,1-1.616-1.653A1.634,1.634,0,0,1,705.827,305.505Z" transform="translate(-552.586 -259.534)" fill="#e6e6e6"/>
    <rect id="Rectangle_46" data-name="Rectangle 46" width="37.895" height="28.951" transform="translate(127.627 54.914)" fill="#f2f2f2"/>
    <rect id="Rectangle_47" data-name="Rectangle 47" width="34.129" height="26.074" transform="translate(129.51 56.353)" fill="#fff"/>
    <circle id="Ellipse_4" data-name="Ellipse 4" cx="1.417" cy="1.417" r="1.417" transform="translate(133.884 62.088)" fill="#3f3d56"/>
    <path id="Path_174" data-name="Path 174" d="M688.036,372.384a.961.961,0,1,1,0,1.922h-14.9a.961.961,0,1,1,0-1.922h14.9m0-.235h-14.9a1.2,1.2,0,1,0,0,2.393h14.9a1.2,1.2,0,1,0,0-2.393Z" transform="translate(-529.966 -309.981)" fill="#3f3d56"/>
    <path id="Path_175" data-name="Path 175" d="M675.948,374.541H664.728a1.2,1.2,0,0,1,0-2.393h11.219a1.2,1.2,0,1,1,0,2.393Z" transform="translate(-523.759 -309.981)" fill="#ce1212"/>
    <circle id="Ellipse_5" data-name="Ellipse 5" cx="1.417" cy="1.417" r="1.417" transform="translate(133.884 67.973)" fill="#3f3d56"/>
    <path id="Path_176" data-name="Path 176" d="M688.036,394.9a.961.961,0,1,1,0,1.922h-14.9a.961.961,0,1,1,0-1.922h14.9m0-.235h-14.9a1.2,1.2,0,0,0,0,2.393h14.9a1.2,1.2,0,0,0,0-2.393Z" transform="translate(-529.966 -326.612)" fill="#3f3d56"/>
    <path id="Path_177" data-name="Path 177" d="M680.184,397.056H664.728a1.2,1.2,0,0,1,0-2.393h15.456a1.2,1.2,0,0,1,0,2.393Z" transform="translate(-523.758 -326.612)" fill="#ce1212"/>
    <circle id="Ellipse_6" data-name="Ellipse 6" cx="1.417" cy="1.417" r="1.417" transform="translate(133.884 73.857)" fill="#3f3d56"/>
    <path id="Path_178" data-name="Path 178" d="M688.036,417.414a.961.961,0,1,1,0,1.922h-14.9a.961.961,0,1,1,0-1.922h14.9m0-.235h-14.9a1.2,1.2,0,1,0,0,2.393h14.9a1.2,1.2,0,1,0,0-2.393Z" transform="translate(-529.966 -343.242)" fill="#3f3d56"/>
    <path id="Path_179" data-name="Path 179" d="M671,419.571h-6.277a1.2,1.2,0,1,1,0-2.393H671a1.2,1.2,0,1,1,0,2.393Z" transform="translate(-523.758 -343.242)" fill="#ce1212"/>
    <rect id="Rectangle_48" data-name="Rectangle 48" width="105.873" height="54.26" transform="translate(13.378 26.529)" fill="#f2f2f2"/>
    <rect id="Rectangle_49" data-name="Rectangle 49" width="98.814" height="48.867" transform="translate(16.907 29.225)" fill="#fff"/>
    <path id="Path_180" data-name="Path 180" d="M320.393,305.705H248.359a.225.225,0,0,1-.225-.225V270.954a.225.225,0,1,1,.451,0v34.3h71.808a.225.225,0,1,1,0,.451Z" transform="translate(-216.926 -235.068)" fill="#3f3d56"/>
    <path id="Path_181" data-name="Path 181" d="M287.476,365.762h-6.552a.67.67,0,0,1-.669-.669v-9.032a.67.67,0,0,1,.669-.669h6.552a.67.67,0,0,1,.669.669v9.032a.67.67,0,0,1-.669.669Z" transform="translate(-240.652 -297.604)" fill="#ce1212"/>
    <path id="Path_182" data-name="Path 182" d="M333.191,341.55H326.64a.67.67,0,0,1-.669-.669v-17.6a.67.67,0,0,1,.669-.669h6.552a.67.67,0,0,1,.669.669v17.6A.67.67,0,0,1,333.191,341.55Z" transform="translate(-274.42 -273.392)" fill="#ce1212"/>
    <path id="Path_183" data-name="Path 183" d="M378.907,365.762h-6.552a.67.67,0,0,1-.669-.669v-9.032a.67.67,0,0,1,.669-.669h6.552a.67.67,0,0,1,.669.669v9.032a.67.67,0,0,1-.669.669Z" transform="translate(-308.187 -297.604)" fill="#ce1212"/>
    <path id="Path_184" data-name="Path 184" d="M424.623,331.993h-6.552a.655.655,0,0,1-.669-.639v-21.04a.655.655,0,0,1,.669-.639h6.552a.655.655,0,0,1,.669.639v21.04A.655.655,0,0,1,424.623,331.993Z" transform="translate(-341.955 -263.835)" fill="#ce1212"/>
    <path id="Path_185" data-name="Path 185" d="M470.338,314.791h-6.552a.67.67,0,0,1-.669-.669V287.056a.67.67,0,0,1,.669-.669h6.552a.67.67,0,0,1,.669.669v27.066a.67.67,0,0,1-.669.669Z" transform="translate(-375.723 -246.634)" fill="#ce1212"/>
    <circle id="Ellipse_7" data-name="Ellipse 7" cx="1.353" cy="1.353" r="1.353" transform="translate(42.195 52.377)" fill="#3f3d56"/>
    <circle id="Ellipse_8" data-name="Ellipse 8" cx="1.353" cy="1.353" r="1.353" transform="translate(54.143 43.586)" fill="#3f3d56"/>
    <circle id="Ellipse_9" data-name="Ellipse 9" cx="1.353" cy="1.353" r="1.353" transform="translate(66.091 52.377)" fill="#3f3d56"/>
    <circle id="Ellipse_10" data-name="Ellipse 10" cx="1.353" cy="1.353" r="1.353" transform="translate(78.039 39.302)" fill="#3f3d56"/>
    <circle id="Ellipse_11" data-name="Ellipse 11" cx="1.353" cy="1.353" r="1.353" transform="translate(89.987 34.343)" fill="#3f3d56"/>
    <path id="Path_186" data-name="Path 186" d="M190.165,154.738l-11.976-8.97-11.813,8.848-.27-.361,12.083-9.051,11.919,8.928,11.845-12.962.047-.019,11.948-4.814.169.418-11.9,4.795Z" transform="translate(-122.694 -100.705)" fill="#3f3d56"/>
    <path id="Path_187" data-name="Path 187" d="M788.107,764.243H688.531a.261.261,0,0,1,0-.523h99.576a.261.261,0,1,1,0,.523Z" transform="translate(-542.031 -599.214)" fill="#ccc"/>
  </g>
</svg>
