<svg id="mentorship-about" xmlns="http://www.w3.org/2000/svg" width="277.106" height="168.413" viewBox="0 0 277.106 168.413">
  <path id="Path_188" data-name="Path 188" d="M276.978,520.875H0v-.7H277.106Z" transform="translate(0 -352.462)" fill="#3f3d56"/>
  <path id="Path_189" data-name="Path 189" d="M840.843,355.41l-7.009,13.876-20.957,9.527c-2.238,3.782-9.35,4.072-9.867,1.626-.58-2.744,8.636-7.16,8.636-7.16l17.529-11.856,1.534-10.207Z" transform="translate(-598.986 -298.858)" fill="#a0616a"/>
  <path id="Path_190" data-name="Path 190" d="M732.913,464.215l1.293,10.341-7.5.517-.775-10.858Z" transform="translate(-491.883 -314.546)" fill="#a0616a"/>
  <path id="Path_191" data-name="Path 191" d="M873.587,669.952a20.322,20.322,0,0,0,1.85-2.262c1.074-1.487,2.028,6.14,2.028,6.14s1.034,3.1.776,4.653-6.2,1.551-7.239,1.293a48.9,48.9,0,0,0-6.2,0h-7.756c-6.721-3.1,0-5.17,0-5.17,2.068-.259,9.048-6.721,9.048-6.721l1.551-2.844c1.034-.259,2.068,3.619,2.068,3.619Z" transform="translate(-633.591 -511.494)" fill="#2f2e41"/>
  <path id="Path_192" data-name="Path 192" d="M793.049,464.616l1.293,10.341-7.5.517-.776-10.858Z" transform="translate(-532.63 -314.818)" fill="#a0616a"/>
  <path id="Path_193" data-name="Path 193" d="M933.724,670.353a20.3,20.3,0,0,0,1.85-2.262c1.074-1.487,2.028,6.14,2.028,6.14s1.034,2.844.776,4.395-6.2,1.551-7.238,1.293-6.2.258-6.2.258h-7.755c-6.721-3.1,0-5.17,0-5.17,2.068-.259,9.048-6.721,9.048-6.721l1.551-2.844c1.034-.259,2.068,3.619,2.068,3.619Z" transform="translate(-674.339 -511.765)" fill="#2f2e41"/>
  <path id="Path_194" data-name="Path 194" d="M890.127,445.363c1.034,1.293.517,5.687.517,5.687s1.81,14.218,1.034,15.511.517,2.327,1.293,4.136a41.291,41.291,0,0,1,1.551,6.2c4.395,3.619,4.136,20.164,4.136,20.164L900.21,511.8c-.517,1.551-7.756,1.81-8.79,1.551s-4.136-23.525-4.136-23.525l-6.98-13.184s.517,35.158.517,36.71-6.98.776-8.531.776-1.551-25.852-1.551-25.852l-1.551-6.722-8.273-30.764v-3.619l1.293-1.81S889.093,444.07,890.127,445.363Z" transform="translate(-638.24 -362.262)" fill="#2f2e41"/>
  <circle id="Ellipse_12" data-name="Ellipse 12" cx="8.014" cy="8.014" r="8.014" transform="translate(232.499 8.389)" fill="#a0616a"/>
  <path id="Path_195" data-name="Path 195" d="M898.379,251.326c1.625,3.617.663,8.67-2.585,14.218l13.184-6.2-2.068-1.81.517-5.17Z" transform="translate(-661.873 -231.174)" fill="#a0616a"/>
  <path id="Path_196" data-name="Path 196" d="M875.017,272.639a8.272,8.272,0,0,0-3.352,4.831,45.787,45.787,0,0,0-1.968,10.939l-.626,11.115L861.315,329c6.721,5.687,10.6,4.395,19.647-.259s10.082,1.551,10.082,1.551.776-.258,0-1.034,0,0,.776-.776,0,0-.258-.776,0-.258.258-.517-1.034-2.585-1.034-2.585l2.068-19.389,2.585-27.4c-3.1-3.878-11.892-7.238-11.892-7.238l-8.014,5.687c-2.585,1.034-.517-3.1-.517-3.1Z" transform="translate(-638.511 -244.214)" fill="#ce1212"/>
  <path id="Path_197" data-name="Path 197" d="M944.178,343.937l1.034,15.511L932.028,378.32c0,4.395-2.327,5.429-2.327,5.429a34.184,34.184,0,0,1-2.327-4.395,5.018,5.018,0,0,1,.776-5.17l9.048-19.13-3.878-9.565Z" transform="translate(-682.984 -293.926)" fill="#a0616a"/>
  <path id="Path_198" data-name="Path 198" d="M946.9,292.3c4.395,1.551,5.17,18.355,5.17,18.355-5.17-2.844-11.375,1.81-11.375,1.81s-1.293-4.395-2.844-10.082a9.88,9.88,0,0,1,2.068-9.307S942.508,290.75,946.9,292.3Z" transform="translate(-690.103 -258.577)" fill="#ce1212"/>
  <path id="Path_199" data-name="Path 199" d="M906.46,218.745c-1.02-.816-2.412.667-2.412.667l-.816-7.346s-5.1.612-8.366-.2-3.775,2.959-3.775,2.959a26.206,26.206,0,0,1-.1-4.591c.2-1.836,2.857-3.673,7.55-4.9s7.142,4.081,7.142,4.081C908.945,211.047,907.48,219.562,906.46,218.745Z" transform="translate(-658.58 -199.886)" fill="#2f2e41"/>
  <path id="Path_200" data-name="Path 200" d="M210.665,491.316c.881,3.5,8.394,11.363,16.147,18.75-11.955-29.529-5.143-61.845-5.143-61.845-2.22,12.692,28.2,76.563,28.2,76.563l-6.929,4.086-2.341,3.294C217.137,521.386,210.665,491.316,210.665,491.316Z" transform="translate(-197.639 -364.587)" fill="#e6e6e6"/>
  <rect id="Rectangle_51" data-name="Rectangle 51" width="98.004" height="19.35" transform="translate(117.193 61.249)" fill="#e6e6e6"/>
  <rect id="Rectangle_52" data-name="Rectangle 52" width="98.004" height="19.35" transform="translate(117.193 30.675)" fill="#e6e6e6"/>
  <rect id="Rectangle_53" data-name="Rectangle 53" width="98.004" height="19.35" transform="translate(117.193)" fill="#e6e6e6"/>
  <path id="Path_201" data-name="Path 201" d="M540.23,210.475h93.826V195.3H540.23Z" transform="translate(-420.948 -193.214)" fill="#fff"/>
  <path id="Path_202" data-name="Path 202" d="M540.23,305.826h93.826V290.655H540.23Z" transform="translate(-420.948 -257.823)" fill="#fff"/>
  <path id="Path_203" data-name="Path 203" d="M540.23,400.447h93.825V385.276H540.23Z" transform="translate(-420.948 -321.937)" fill="#fff"/>
  <circle id="Ellipse_13" data-name="Ellipse 13" cx="5.78" cy="5.78" r="5.78" transform="translate(121.716 3.769)" fill="#ce1212"/>
  <rect id="Rectangle_54" data-name="Rectangle 54" width="57.044" height="1.256" transform="translate(141.317 7.287)" fill="#ce1212"/>
  <rect id="Rectangle_55" data-name="Rectangle 55" width="57.044" height="1.256" transform="translate(141.317 10.554)" fill="#ce1212"/>
  <circle id="Ellipse_14" data-name="Ellipse 14" cx="5.78" cy="5.78" r="5.78" transform="translate(121.716 34.696)" fill="#ccc"/>
  <rect id="Rectangle_56" data-name="Rectangle 56" width="57.044" height="1.256" transform="translate(141.317 38.214)" fill="#ccc"/>
  <rect id="Rectangle_57" data-name="Rectangle 57" width="57.044" height="1.256" transform="translate(141.317 41.481)" fill="#ccc"/>
  <circle id="Ellipse_15" data-name="Ellipse 15" cx="5.78" cy="5.78" r="5.78" transform="translate(121.716 65.27)" fill="#ccc"/>
  <rect id="Rectangle_58" data-name="Rectangle 58" width="57.044" height="1.256" transform="translate(141.317 68.788)" fill="#ccc"/>
  <rect id="Rectangle_59" data-name="Rectangle 59" width="57.044" height="1.256" transform="translate(141.317 72.055)" fill="#ccc"/>
  <path id="Path_204" data-name="Path 204" d="M309.34,356.993s-1.351,8.494,4.247,7.722c0,0,22.2-5.019,23.358-3.861s8.359,1.553,7.983-3.331c-.377-4.9-7.6-2.075-7.6-2.075s-11.2,1.544-13.513.386-8.88-.772-8.88-.772Z" transform="translate(-264.402 -301.177)" fill="#a0616a"/>
  <path id="Path_205" data-name="Path 205" d="M328.129,447.853l-3.078,29.206s-.965,11.583-3.861,14.092c0,0,0,3.668-.965,4.826l-1.351,15.25s1.93,5.6,1.737,6.563.772,4.054.579,4.44-9.266,0-9.266,0l1.93-31.08,5.984-43.241Z" transform="translate(-266.251 -364.339)" fill="#2f2e41"/>
  <path id="Path_206" data-name="Path 206" d="M304.378,671.9s-4.048,10.209-1.936,11.441,24.291.352,24.291.352,3.7-2.288-.528-3.872a14.5,14.5,0,0,1-5.809-1.584,33.65,33.65,0,0,1-4.928-4.048s-.176-3.872-1.584-2.992a3.617,3.617,0,0,0-1.584,2.464Z" transform="translate(-259.412 -515.582)" fill="#2f2e41"/>
  <path id="Path_207" data-name="Path 207" d="M284.5,667.432s-4.44,11.2-2.123,12.548,26.64.386,26.64.386,4.054-2.51-.579-4.247a15.9,15.9,0,0,1-6.37-1.737,36.9,36.9,0,0,1-5.405-4.44s-.193-4.247-1.737-3.282a3.967,3.967,0,0,0-1.737,2.7Z" transform="translate(-245.776 -512.502)" fill="#2f2e41"/>
  <path id="Path_208" data-name="Path 208" d="M301.839,436.075s-2.123,19.883-3.089,24.13a54.9,54.9,0,0,0-1.158,8.494s-.193,6.177-1.93,7.915a5.218,5.218,0,0,0-1.544,3.861s-1.737,19.5-.772,21.814,2.275,5.326,1.31,6.87-11.928.465-11.928-.693,0-2.124-.579-2.7,0-4.247,0-4.247-2.316-17.181-.193-22.2,3.089-18.725,3.089-18.725-1.544-15.636-3.475-18.146.386-11.389.386-11.389Z" transform="translate(-245.162 -352.957)" fill="#2f2e41"/>
  <path id="Path_209" data-name="Path 209" d="M329.2,243.44a2.6,2.6,0,0,0,1.251,1.065,37.4,37.4,0,0,1,7.544,6.063,8.856,8.856,0,0,1,.351-5.989,3.087,3.087,0,0,0,.445-2.016,2.509,2.509,0,0,0-.979-1.171,30.354,30.354,0,0,0-2.985-2.037c-.723-.432-2.209-1.584-3.038-1.458a7.705,7.705,0,0,1-.557,3.17C331.11,241.316,329.281,243.636,329.2,243.44Z" transform="translate(-277.953 -222.069)" fill="#a0616a"/>
  <circle id="Ellipse_16" data-name="Ellipse 16" cx="7.915" cy="7.915" r="7.915" transform="translate(53.202 8.025)" fill="#a0616a"/>
  <path id="Path_210" data-name="Path 210" d="M301.843,266.717s1.351-6.756-2.51-9.073-8.3-5.019-8.3-5.019-1.351-.193-1.93,2.7c0,0-11,2.123-12.162,12.548s.772,25.675.772,25.675-1.737,13.32-3.861,20.462c0,0-1.737,1.544,5.984-.772s21.235,6.564,21.235,6.564,1.351-1.351,1.351-2.316,2.9-30.308,3.475-33.01S303.58,267.1,301.843,266.717Z" transform="translate(-240.34 -232.053)" fill="#e6e6e6"/>
  <path id="Path_211" data-name="Path 211" d="M335.975,213.032a3.3,3.3,0,0,1,1.552-.413,2.954,2.954,0,0,0,1.536-.458c.748-.574.8-1.683,1.349-2.451.792-1.111,2.372-1.245,3.735-1.19a4.139,4.139,0,0,0,2.434-.367A3.656,3.656,0,0,0,347.872,206c.287-.972.473-2.16-.239-2.88-.495-.5-1.275-.6-1.825-1.039a80.444,80.444,0,0,0-7.919-2.052,7.714,7.714,0,0,0-9,4.883,23.882,23.882,0,0,0-1.507,5.021c.361,2.276,2.374,4.085,2.512,6.385a3.92,3.92,0,0,1,2.393-2.845.749.749,0,0,1,.487-.059c.2.064.317.264.443.431.331.44,1.37,1.107,1.958.795C335.705,214.358,335.312,213.482,335.975,213.032Z" transform="translate(-276.723 -196.278)" fill="#3f3d56"/>
  <path id="Path_212" data-name="Path 212" d="M364.708,336.754a.88.88,0,0,0-.018,1.239l5.565,5.76a.878.878,0,0,0,1.252.012l16.983-16.909a.878.878,0,0,0-.14-1.359l-6.678-4.35a.873.873,0,0,0-1.093.108Z" transform="translate(-301.838 -278.387)" fill="#3f3d56"/>
  <path id="Path_213" data-name="Path 213" d="M388.512,335.737a.885.885,0,0,1-.116.143l-16.943,17.229a.878.878,0,0,1-1.252-.012l-5.685-6a.877.877,0,0,1-.1-.131.788.788,0,0,0,.184,1.009l5.565,5.76a.878.878,0,0,0,1.252.012L388.4,336.839a.879.879,0,0,0,.116-1.1Z" transform="translate(-301.743 -288.37)" fill="#ce1212"/>
  <path id="Path_214" data-name="Path 214" d="M388.892,327.8l-.691-.441a.658.658,0,0,1-.948.865l-4.472-3.075a.658.658,0,0,1,.174-1.17l-.356-.227a.239.239,0,0,0-.3.034l-15.045,14.785a.24.24,0,0,0,.006.343l5.464,5.324a.24.24,0,0,0,.333,0l15.874-16.061a.24.24,0,0,0-.04-.372Z" transform="translate(-303.695 -280.222)" fill="#fff"/>
  <path id="Path_215" data-name="Path 215" d="M210.391,149.572l4.615,4.352,10.978-10.846-5.571-3.626Z" transform="translate(-142.558 -94.49)" fill="#e6e6e6"/>
  <path id="Path_216" data-name="Path 216" d="M427.595,345.236a.164.164,0,0,0,.226,0l.96-.96a.16.16,0,0,0,0-.226.164.164,0,0,0-.226,0l-.96.96A.16.16,0,0,0,427.595,345.236Z" transform="translate(-344.596 -293.972)" fill="#3f3d56"/>
  <path id="Path_217" data-name="Path 217" d="M422.579,350.248a.16.16,0,0,0,.226,0l.96-.96a.16.16,0,1,0-.226-.226l-.96.96A.16.16,0,0,0,422.579,350.248Z" transform="translate(-341.197 -297.368)" fill="#3f3d56"/>
  <circle id="Ellipse_17" data-name="Ellipse 17" cx="1.078" cy="1.078" r="1.078" transform="translate(66.861 57.738)" fill="#ce1212"/>
  <path id="Path_218" data-name="Path 218" d="M291.864,347.673s-1.351,8.494,4.247,7.722c0,0,22.2-5.019,23.358-3.861s8.359,1.553,7.983-3.331c-.377-4.9-7.6-2.075-7.6-2.075s-11.2,1.544-13.513.386-8.88-.772-8.88-.772Z" transform="translate(-252.561 -294.862)" fill="#a0616a"/>
  <path id="Path_219" data-name="Path 219" d="M298.458,269.4s-8.687.965-8.687,13.513v16.022l10.617-4.44s4.44-10.424,4.054-13.32S304.249,269.782,298.458,269.4Z" transform="translate(-251.24 -243.418)" fill="#e6e6e6"/>
</svg>
