<svg xmlns="http://www.w3.org/2000/svg" width="252.272" height="186.323" viewBox="0 0 252.272 186.323">
  <g id="supplies-about" transform="translate(0 0.098)">
    <path id="Path_86" data-name="Path 86" d="M745.821,208.625,747.8,207.4c.188-.119.373-.246.564-.365A18.891,18.891,0,0,1,732.695,189.3a18.694,18.694,0,0,1,1.631-8.6,18.922,18.922,0,0,1,12.129-10.463l-.1,7.784,4.276-8.472a.17.17,0,0,1,.053,0,18.888,18.888,0,0,1,19.748,17.988c.016.36,0,.715,0,1.059a22.58,22.58,0,0,0,3.733-5.51c1.811-4.038,1.853-8.61,1.7-14.167-.286-11.014-.76-22.11-1.379-33.174a18.877,18.877,0,0,1-16.772-17.868c-.026-.58-.019-1.149,0-1.716a2.847,2.847,0,0,1,.021-.424c.037-.548.087-1.091.172-1.626a1.547,1.547,0,0,1,.048-.265q.116-.68.278-1.345c.042-.164.082-.331.127-.5a14.314,14.314,0,0,1,.448-1.424c.056-.156.122-.307.18-.461.135-.344.281-.683.434-1.019.082-.177.161-.352.249-.53.021-.045.04-.09.063-.135h0a18.875,18.875,0,0,1,22.176-9.579l-.127,10.13,4.236-8.366a18.771,18.771,0,0,1,9,20.352h.021c-.029.135-.072.265-.1.4-.058.249-.122.5-.191.741-.09.315-.191.625-.294.935-.079.23-.156.466-.244.694-.127.334-.265.659-.418.985-.085.191-.162.384-.265.572q-.363.731-.794,1.43c-.1.162-.209.315-.312.477-.2.312-.405.622-.625.924-.135.185-.281.363-.424.545-.207.265-.418.53-.638.77-.156.177-.315.352-.479.53-.23.244-.469.479-.715.712-.161.156-.326.312-.5.461-.278.246-.569.482-.863.712-.148.117-.291.238-.445.349q-.67.5-1.385.935c-.09.053-.185.1-.265.151-.4.236-.794.455-1.221.662-.177.087-.363.164-.545.246-.341.154-.686.3-1.038.437-.2.077-.413.148-.622.22-.347.119-.7.228-1.059.326-.212.058-.421.117-.635.167-.387.093-.781.169-1.178.236a.135.135,0,0,0-.077.016q.392,7,.7,14.008a18.877,18.877,0,0,1,26.211-8.194l-3.339,9.147,6.868-6.6a18.835,18.835,0,0,1,6.089,13.042,18.491,18.491,0,0,1-.479,5.2,18.88,18.88,0,0,1-34.728,5.144c0,.474.034.95.048,1.424.125,4.9.281,11-2.163,16.452a33.045,33.045,0,0,1-6.955,9.38c-1.713,1.75-3.49,3.442-5.311,5.081a18.888,18.888,0,0,1-6.82,5.671q-4.488,3.458-9.293,6.476l-1.946,1.255c-1.8,1.115-3.64,2.258-5.449,3.442.318-.032.633-.066.956-.079a18.9,18.9,0,0,1,18.6,12.293l-11.8,9.608,12.973-3.01a18.9,18.9,0,0,1-27.079,17.011c.291.365.585.728.876,1.091.58.723,1.157,1.44,1.721,2.152,7.678,9.725,9.817,18.959,6.013,26l-4.623-2.5c3.707-6.852-1.853-15.621-5.515-20.243-.553-.7-1.12-1.4-1.692-2.118-4.906-6.089-10.466-13-10.326-21.48C723.441,222.5,735.856,214.8,745.821,208.625Z" transform="translate(-563.992 -98.18)" fill="#f2f2f2"/>
    <ellipse id="Ellipse_1" data-name="Ellipse 1" cx="121.054" cy="5.56" rx="121.054" ry="5.56" transform="translate(0 175.105)" fill="#3f3d56"/>
    <path id="Path_87" data-name="Path 87" d="M939.3,683.8c.794-1.459-.106-3.246-1.133-4.548s-2.28-2.648-2.253-4.313c.037-2.383,2.565-3.789,4.588-5.052a22.458,22.458,0,0,0,4.117-3.312,6.034,6.034,0,0,0,1.268-1.694,6.916,6.916,0,0,0,.379-3.013q-.132-5.1-.5-10.188" transform="translate(-720.355 -505.209)" fill="none" stroke="#3f3d56" stroke-miterlimit="10" stroke-width="4"/>
    <path id="Path_88" data-name="Path 88" d="M966.983,641.156a3.722,3.722,0,0,0-1.853-3.045l-.831,1.647.024-1.991a3.715,3.715,0,1,0,2.648,3.389Z" transform="translate(-737.739 -494.865)" fill="#57b793"/>
    <path id="Path_89" data-name="Path 89" d="M943.145,730.995a3.707,3.707,0,1,1,.177-2.992L941,729.891l2.552-.593A3.707,3.707,0,0,1,943.145,730.995Z" transform="translate(-720.527 -559.552)" fill="#57b793"/>
    <path id="Path_90" data-name="Path 90" d="M944.868,698.075a3.706,3.706,0,0,1-3.881-3.54,3.654,3.654,0,0,1,.32-1.692,3.722,3.722,0,0,1,2.383-2.06l-.019,1.533.842-1.668h0a3.717,3.717,0,1,1,.347,7.426Z" transform="translate(-724.086 -533.857)" fill="#57b793"/>
    <path id="Path_91" data-name="Path 91" d="M978.94,675.4a3.711,3.711,0,1,1,1.641-6.942l-.657,1.8,1.35-1.3a3.706,3.706,0,0,1,1.2,2.565,3.619,3.619,0,0,1-.1,1.022A3.707,3.707,0,0,1,978.94,675.4Z" transform="translate(-749.137 -517.196)" fill="#57b793"/>
    <path id="Path_92" data-name="Path 92" d="M966.6,647.767c-.858.1-1.692.363-2.552.416a2.777,2.777,0,0,1-2.351-.823,11.753,11.753,0,0,1-.688-1.207,2.648,2.648,0,0,0-.935-.882,3.707,3.707,0,1,0,6.947,2.468C966.876,647.743,966.736,647.753,966.6,647.767Z" transform="translate(-737.854 -500.496)" opacity="0.1"/>
    <path id="Path_93" data-name="Path 93" d="M978.915,681.3a3.707,3.707,0,0,1-3.535-5.3,2.752,2.752,0,0,1,.747.749,11.96,11.96,0,0,0,.736,1.229,3.03,3.03,0,0,0,2.465.86c.9-.042,1.761-.294,2.648-.376.122,0,.249-.021.373-.024a3.707,3.707,0,0,1-3.434,2.857Z" transform="translate(-749.112 -523.09)" opacity="0.1"/>
    <path id="Path_94" data-name="Path 94" d="M944.868,704.182a3.707,3.707,0,0,1-3.881-3.54,3.653,3.653,0,0,1,.32-1.692,3.049,3.049,0,0,1,.794.755c.289.408.469.876.794,1.252a3.432,3.432,0,0,0,2.632.921c.95-.024,1.806-.246,2.722-.315A3.722,3.722,0,0,1,944.868,704.182Z" transform="translate(-724.086 -539.964)" opacity="0.1"/>
    <path id="Path_95" data-name="Path 95" d="M942.866,737.545a3.714,3.714,0,1,1-6.775-3.045,3.856,3.856,0,0,1,.815.728,14.67,14.67,0,0,0,1,1.324,4.624,4.624,0,0,0,3.076,1.08A15.919,15.919,0,0,0,942.866,737.545Z" transform="translate(-720.249 -566.102)" opacity="0.1"/>
    <path id="Path_96" data-name="Path 96" d="M927.54,762.247s2.931-.09,3.815-.72,4.5-1.382,4.731-.371,4.408,5.03,1.1,5.046-7.694-.53-8.576-1.059S927.54,762.247,927.54,762.247Z" transform="translate(-714.202 -585.337)" fill="#656380"/>
    <path id="Path_97" data-name="Path 97" d="M937.241,770.224c-3.309.026-7.694-.53-8.575-1.059-.67-.408-.94-1.877-1.027-2.555h-.1s.185,2.364,1.059,2.912,5.263,1.08,8.576,1.059c.956,0,1.287-.349,1.268-.852C938.318,770.028,937.953,770.219,937.241,770.224Z" transform="translate(-714.202 -589.71)" opacity="0.2"/>
    <path id="Path_98" data-name="Path 98" d="M272.393,524.695c-1.922-3.558.265-7.916,2.764-11.088s5.56-6.471,5.494-10.514c-.1-5.809-6.259-9.237-11.183-12.317a54.616,54.616,0,0,1-10.042-8.072,14.667,14.667,0,0,1-3.087-4.133c-1.017-2.272-.99-4.853-.924-7.342q.318-12.444,1.228-24.84" transform="translate(-220.922 -354.271)" fill="none" stroke="#3f3d56" stroke-miterlimit="10" stroke-width="4"/>
    <path id="Path_99" data-name="Path 99" d="M224.732,420.72a9.057,9.057,0,0,1,4.522-7.413l2.028,4.011-.061-4.856a9.06,9.06,0,1,1-6.489,8.266Z" transform="translate(-198.376 -329.054)" fill="#57b793"/>
    <path id="Path_100" data-name="Path 100" d="M283,639.631a9.055,9.055,0,0,0,17.1-3.707,8.938,8.938,0,0,0-.59-3.675,9.06,9.06,0,0,0-16.944.1l5.658,4.6L282,635.5A8.957,8.957,0,0,0,283,639.631Z" transform="translate(-240.326 -486.657)" fill="#57b793"/>
    <path id="Path_101" data-name="Path 101" d="M278.717,559.531a9.06,9.06,0,0,0,2.873-17.77l.048,3.73-2.039-4.059h-.024a9.061,9.061,0,0,0-.845,18.1Z" transform="translate(-231.583 -424.143)" fill="#57b793"/>
    <path id="Path_102" data-name="Path 102" d="M195.6,504.259a9.06,9.06,0,1,0-4-16.944l1.589,4.387-3.28-3.169a9.018,9.018,0,0,0-2.939,6.254,8.836,8.836,0,0,0,.23,2.494A9.057,9.057,0,0,0,195.6,504.259Z" transform="translate(-170.61 -383.504)" fill="#57b793"/>
    <path id="Path_103" data-name="Path 103" d="M226.485,436.889c2.092.23,4.125.879,6.222,1.009s4.4-.371,5.729-2a28.242,28.242,0,0,0,1.676-2.949,6.428,6.428,0,0,1,2.282-2.147,9.06,9.06,0,1,1-16.944,6.013C225.8,436.829,226.146,436.852,226.485,436.889Z" transform="translate(-198.911 -342.809)" opacity="0.1"/>
    <path id="Path_104" data-name="Path 104" d="M196.3,518.67a9.065,9.065,0,0,0,8.618-12.92,6.7,6.7,0,0,0-1.822,1.822,29.366,29.366,0,0,1-1.8,2.994c-1.411,1.657-3.82,2.2-6.007,2.1s-4.3-.723-6.473-.921c-.3-.026-.609-.048-.913-.056A9.057,9.057,0,0,0,196.3,518.67Z" transform="translate(-171.31 -397.915)" opacity="0.1"/>
    <path id="Path_105" data-name="Path 105" d="M279.8,574.4a9.057,9.057,0,0,0,8.689-12.753,7.326,7.326,0,0,0-1.914,1.853,31.043,31.043,0,0,1-1.967,3.053c-1.528,1.7-4.1,2.3-6.412,2.248-2.242-.048-4.4-.6-6.632-.77A9.065,9.065,0,0,0,279.8,574.4Z" transform="translate(-232.661 -439.015)" opacity="0.1"/>
    <path id="Path_106" data-name="Path 106" d="M285.78,655.741a9.055,9.055,0,0,0,17.1-3.707,8.938,8.938,0,0,0-.59-3.675,9.071,9.071,0,0,0-1.986,1.771,34.83,34.83,0,0,1-2.425,3.219c-1.853,1.816-4.842,2.568-7.5,2.648A38.861,38.861,0,0,1,285.78,655.741Z" transform="translate(-243.102 -502.768)" opacity="0.1"/>
    <path id="Path_107" data-name="Path 107" d="M246.674,549.252,211.726,556.4l-.794-.079-30.712-3.1V514.3l37.6-6.354,27.27,3.177.008.172,0,.085Z" transform="translate(-132.269 -373.539)" fill="#ce1212"/>
    <path id="Path_108" data-name="Path 108" d="M331.962,558.553,297.014,565.7l-.794-.079v-39.9l34.162-5.123Z" transform="translate(-217.461 -382.839)" opacity="0.1"/>
    <path id="Path_109" data-name="Path 109" d="M245.1,511.384l-.011.008-34.154,5.03L180.22,514.3l37.6-6.354,27.27,3.177.008.172Z" transform="translate(-132.271 -373.539)" opacity="0.05"/>
    <path id="Path_110" data-name="Path 110" d="M391.674,555.252,356.726,562.4l-.794-.079-30.712-3.1V520.3l37.6-6.354,27.27,3.177.008.172,0,.085Z" transform="translate(-238.69 -377.95)" fill="#3f3d56"/>
    <path id="Path_111" data-name="Path 111" d="M476.962,564.553,442.014,571.7l-.794-.079v-39.9l34.162-5.123Z" transform="translate(-323.908 -387.251)" opacity="0.1"/>
    <path id="Path_112" data-name="Path 112" d="M390.1,517.384l-.011.008-34.154,5.03L325.22,520.3l37.6-6.354,27.27,3.177.008.172Z" transform="translate(-238.693 -377.95)" opacity="0.05"/>
    <path id="Path_113" data-name="Path 113" d="M300.674,411.252,265.726,418.4l-.794-.079-30.712-3.1V376.3l37.6-6.354,27.27,3.177.008.172,0,.085Z" transform="translate(-171.902 -272.075)" fill="#3f3d56"/>
    <path id="Path_114" data-name="Path 114" d="M385.962,420.553,351.014,427.7l-.794-.079v-39.9l34.162-5.123Z" transform="translate(-257.103 -281.376)" opacity="0.1"/>
    <path id="Path_115" data-name="Path 115" d="M299.1,373.384l-.011.008-34.154,5.03L234.22,376.3l37.6-6.354,27.27,3.177.008.172Z" transform="translate(-171.904 -272.075)" opacity="0.05"/>
    <path id="Path_116" data-name="Path 116" d="M463.9,472.247l-18.239,3.733-.416-.042L429.22,474.32V454.007l19.621-3.317,14.233,1.66.005.09v.042Z" transform="translate(-315.101 -331.439)" fill="#3f3d56"/>
    <path id="Path_117" data-name="Path 117" d="M508.415,477.106l-18.239,3.733-.416-.042V459.974l17.831-2.674Z" transform="translate(-359.583 -336.299)" opacity="0.1"/>
    <path id="Path_118" data-name="Path 118" d="M463.08,452.482l-.005.005-17.826,2.626-16.028-1.107,19.621-3.317,14.233,1.66.005.09Z" transform="translate(-315.103 -331.439)" opacity="0.05"/>
    <path id="Path_119" data-name="Path 119" d="M278.9,323.247l-18.239,3.73-.416-.04L244.22,325.32V305.007l19.621-3.317,14.233,1.66.005.09v.042Z" transform="translate(-179.288 -221.888)" fill="#3f3d56"/>
    <path id="Path_120" data-name="Path 120" d="M323.415,328.107l-18.239,3.73-.416-.04V310.974l17.831-2.674Z" transform="translate(-223.755 -226.747)" opacity="0.1"/>
    <path id="Path_121" data-name="Path 121" d="M278.08,303.482l-.005.005-17.826,2.626-16.028-1.107,19.621-3.317,14.233,1.66.005.09Z" transform="translate(-179.289 -221.888)" opacity="0.05"/>
    <path id="Path_122" data-name="Path 122" d="M399.9,320.247l-18.239,3.73-.416-.04L365.22,322.32V302.007l19.621-3.317,14.233,1.66.005.09v.042Z" transform="translate(-268.117 -219.682)" fill="#ce1212"/>
    <path id="Path_123" data-name="Path 123" d="M444.415,325.106l-18.239,3.73-.416-.04V307.974l17.831-2.674Z" transform="translate(-312.594 -224.542)" opacity="0.1"/>
    <path id="Path_124" data-name="Path 124" d="M399.08,300.482l-.005.005-17.826,2.626-16.028-1.107,19.621-3.317,14.233,1.66.005.09Z" transform="translate(-268.119 -219.682)" opacity="0.05"/>
    <path id="Path_125" data-name="Path 125" d="M435.9,243.247l-18.239,3.73-.416-.04L401.22,245.32V225.007l19.621-3.317,14.233,1.66.005.09v.042Z" transform="translate(-294.546 -163.068)" fill="#3f3d56"/>
    <path id="Path_126" data-name="Path 126" d="M480.415,248.107l-18.239,3.73-.416-.04V230.974l17.831-2.674Z" transform="translate(-339.025 -167.928)" opacity="0.1"/>
    <path id="Path_127" data-name="Path 127" d="M435.08,223.482l-.005.005-17.826,2.626-16.028-1.107,19.621-3.317,14.233,1.66.005.09Z" transform="translate(-294.547 -163.068)" opacity="0.05"/>
    <path id="Path_128" data-name="Path 128" d="M698.226,229.488c-.193,1.721-1.506,3.108-1.994,4.766-.731,2.5.529,5.189,2.266,7.148a15.824,15.824,0,0,0,11.019,5.226,4.741,4.741,0,0,0,1.821-.2,3.955,3.955,0,0,0,1.385-.948,8.855,8.855,0,0,0,2.282-4.954,26.5,26.5,0,0,0,.063-5.536,3.132,3.132,0,0,0-.207-1.117,2.838,2.838,0,0,0-.717-.882,16.684,16.684,0,0,0-3.084-2.242,3.464,3.464,0,0,1-1.292-.988,3.232,3.232,0,0,1-.4-1.183l-.342-1.737a3.405,3.405,0,0,0-.5-1.409,3.465,3.465,0,0,0-2.761-.961l-3.707-.146a17.73,17.73,0,0,0-3.791-.148c-1.059.209-.7,1.178-.511,2.057A14.871,14.871,0,0,1,698.226,229.488Z" transform="translate(-544.299 -190.835)" fill="#ffc0c6"/>
    <path id="Path_129" data-name="Path 129" d="M698.226,229.488c-.193,1.721-1.506,3.108-1.994,4.766-.731,2.5.529,5.189,2.266,7.148a15.824,15.824,0,0,0,11.019,5.226,4.741,4.741,0,0,0,1.821-.2,3.955,3.955,0,0,0,1.385-.948,8.855,8.855,0,0,0,2.282-4.954,26.5,26.5,0,0,0,.063-5.536,3.132,3.132,0,0,0-.207-1.117,2.838,2.838,0,0,0-.717-.882,16.684,16.684,0,0,0-3.084-2.242,3.464,3.464,0,0,1-1.292-.988,3.232,3.232,0,0,1-.4-1.183l-.342-1.737a3.405,3.405,0,0,0-.5-1.409,3.465,3.465,0,0,0-2.761-.961l-3.707-.146a17.73,17.73,0,0,0-3.791-.148c-1.059.209-.7,1.178-.511,2.057A14.871,14.871,0,0,1,698.226,229.488Z" transform="translate(-544.299 -190.835)" opacity="0.1"/>
    <path id="Path_130" data-name="Path 130" d="M739.85,513.533l-1.573,17.241c-.41,4.522-.829,9.063-1.633,13.526-.265,1.538-.6,3.069-.99,4.586-1.075,4.212-2.634,8.329-3.137,12.647-.016.124-.029.265-.042.379a11.343,11.343,0,0,1-.529,2.806c-.265.659-.638,1.26-.911,1.912a12.527,12.527,0,0,0-.68,4.154,17.907,17.907,0,0,0-6.166-2.118,4.567,4.567,0,0,1-2.912-1.059c-.794-.863-.7-2.184-.569-3.344q.625-5.4,1.244-10.8a28.141,28.141,0,0,1,.794-4.586c.143-.5.315-.993.49-1.485.241-.678.484-1.356.667-2.052a24.735,24.735,0,0,0,.524-3.4c.426-3.622.94-7.236,1.39-10.855l.024-.191a111.017,111.017,0,0,0,1.04-16.524c-.021-.818-.056-1.636-.109-2.457-.074-1.189-.183-1.819.794-2.563a18.524,18.524,0,0,1,3.765-1.933c.67-.291,8.046-2.912,8.207-2.335a14.375,14.375,0,0,1,.53,3.765A41.9,41.9,0,0,1,739.85,513.533Z" transform="translate(-562.357 -397.369)" fill="#605d82"/>
    <path id="Path_131" data-name="Path 131" d="M743.837,616.209c-.265,1.538-.6,3.069-.99,4.586-1.075,4.212-2.634,8.329-3.137,12.647-.016.124-.029.265-.042.379-3.288-4.7-6.058-9.748-9.267-14.5.241-.678.485-1.356.667-2.052a24.694,24.694,0,0,0,.551-3.418c.426-3.622.94-7.236,1.39-10.855l.024-.191a11.243,11.243,0,0,0,.794,2.227c2.155,4.379,7.276,6.592,9.78,10.784Q743.731,616.016,743.837,616.209Z" transform="translate(-569.555 -469.278)" opacity="0.1"/>
    <path id="Path_132" data-name="Path 132" d="M680.329,448.789a81.43,81.43,0,0,0,1.231,10.461l1.157,7.148c.633,3.918,1.295,7.914,3.148,11.422a52.719,52.719,0,0,0,5.192,7.22c4.443,5.788,7.781,12.346,11.994,18.3,1.226,1.732,2.976,3.606,5.065,3.243,1.371-.236,2.367-1.379,3.442-2.258,1.271-1.038,2.8-1.8,3.8-3.1s1.2-3.463-.159-4.39a7.319,7.319,0,0,0-1.551-.635c-2.1-.794-3.46-2.849-4.324-4.925s-1.39-4.3-2.542-6.232c-2.5-4.191-7.628-6.4-9.783-10.786-1.207-2.452-1.324-5.3-1.414-8.014l-.236-6.966a5.074,5.074,0,0,1,.265-2.25c.823-1.853,3.312-2.028,5.33-2.264a18.2,18.2,0,0,0,6.532-2.06,6.774,6.774,0,0,0,2.912-2.592,8.327,8.327,0,0,0,.71-3.508l.7-12.626a7.961,7.961,0,0,0-.265-3.227c-.961-2.558-4.191-3.394-6.921-3.272-5.078.228-9.764,2.412-14.562,3.889a37.211,37.211,0,0,1-3.609.94,29.252,29.252,0,0,0-3.4.471c-1.822.614-1.777,4.6-2.033,6.254A52.5,52.5,0,0,0,680.329,448.789Z" transform="translate(-532.723 -340.358)" fill="#605d82"/>
    <path id="Path_133" data-name="Path 133" d="M779.912,705.653a3.236,3.236,0,0,1,.71,1.739,59.345,59.345,0,0,1,1.006,10.514,1.742,1.742,0,0,0,.188.953,1.215,1.215,0,0,0,.5.4c1.295.617,2.8-.244,3.876-1.189,2-1.75,3.691-4.1,3.8-6.757a15.536,15.536,0,0,1,.072-2.049,8.527,8.527,0,0,1,1.273-2.746,23.31,23.31,0,0,0,2.118-4.718c.2-.62.328-1.4-.159-1.829a1.7,1.7,0,0,0-.575-.3L786.87,697.5c-.508-.188-1.769,3.05-1.967,3.4a2.68,2.68,0,0,1-1.959,1.557c-.982.2-2.195-.09-3.132.41C778.223,703.715,779.015,704.75,779.912,705.653Z" transform="translate(-605.162 -538.891)" fill="#535070"/>
    <path id="Path_134" data-name="Path 134" d="M730.171,733.069a1.78,1.78,0,0,0-.445-.564,1.994,1.994,0,0,0-.9-.3c-1.112-.191-2.43-.315-3.2.514-.72.776-.6,2.039-1.2,2.912a9.05,9.05,0,0,0-.614.794,2.981,2.981,0,0,0-.265,1.424c-.032,1.348-.064,2.7.032,4.045a5.645,5.645,0,0,0,.972,3.2c1.133,1.419,3.177,1.623,4.988,1.713l1.469.077a2.913,2.913,0,0,0,1.2-.111,1.973,1.973,0,0,0,1.038-1.141c.765-1.9-.445-3.948-1.191-5.854C731.2,737.575,731.354,735.142,730.171,733.069Z" transform="translate(-564.513 -564.308)" fill="#535070"/>
    <path id="Path_135" data-name="Path 135" d="M688.786,178.852a1.2,1.2,0,0,1,.082-.567c.214-.379.776-.265,1.2-.169,1.7.429,3.5.04,5.253.14s3.73.977,4.083,2.7a12.763,12.763,0,0,0,3.238-3.325,3.99,3.99,0,0,0,.845-2.436c-.1-1.26-1.152-2.2-2.118-3l-2.912-2.383a4.423,4.423,0,0,0-1.308-.831,6.507,6.507,0,0,0-2.118-.119c-2.118,0-4.39-.966-6.277,0a6.7,6.7,0,0,0-1.957,1.779l-2.6,3.082a1.645,1.645,0,0,0-.418.707,3.112,3.112,0,0,0,.188,1.125c.122.688-.175,1.424.053,2.086.379,1.1,1.713,1.252,2.528,1.882.3.233.778,1.03,1.141,1.019C688.322,180.525,688.767,179.36,688.786,178.852Z" transform="translate(-535.293 -149.901)" fill="#3f3d56"/>
    <circle id="Ellipse_2" data-name="Ellipse 2" cx="8.34" cy="8.34" r="8.34" transform="translate(149.565 21.36)" fill="#ffc0c6"/>
    <path id="Path_136" data-name="Path 136" d="M671.071,254.633a4.04,4.04,0,0,0-3.921-2.706,1.178,1.178,0,0,1-.725-.093,1,1,0,0,1-.3-.371,14.759,14.759,0,0,1-1.215-2.875c-.132-.442-.315-.964-.763-1.078a1.023,1.023,0,0,0-.969.424,9.269,9.269,0,0,1-.694.871c-1.059.937-2.912.082-4.022.943-.183.14-.334.32-.53.45a2.408,2.408,0,0,1-.612.265,58.619,58.619,0,0,0-6.322,2.47c.741,4.459,1.5,9,3.235,13.172.826,1.986,1.761,3.932,2.423,5.978,1.467,4.535,1.53,9.388,1.549,14.157,0,3.262,0,6.592-1.059,9.68a9.371,9.371,0,0,0-.6,2.118,2.2,2.2,0,0,0,.747,1.98,2.518,2.518,0,0,0,1.152.405,14.965,14.965,0,0,0,5.473-.635,147.3,147.3,0,0,1,14.662-2.383l8.234-1.059a4.815,4.815,0,0,0,1.7-.442c1.507-.823,1.649-3.09.712-4.53-.448-.691-1.08-1.258-1.459-1.988a1.847,1.847,0,0,1,.241-2.264c1.324-1.033.927-2.947.99-4.62q.265-7.021-.071-14.032a27.481,27.481,0,0,1-.048-2.912,25.7,25.7,0,0,1,.908-4.861l2.5-9.849a5.135,5.135,0,0,0-3.09-1.986c-1.183-.3-2.42-.384-3.587-.747-2.383-.741-4.522-2.621-7.019-2.446a1.284,1.284,0,0,0-.545.132c-.561.32-.474,1.13-.508,1.777a4.916,4.916,0,0,1-2.293,3.466,41.411,41.411,0,0,0-3.556,2.4A1.589,1.589,0,0,0,671.071,254.633Z" transform="translate(-511.187 -206.684)" fill="#3f3d56"/>
    <path id="Path_137" data-name="Path 137" d="M589.69,306.231a9.793,9.793,0,0,1-1.753.9,5.826,5.826,0,0,0-1.681.815,2.661,2.661,0,0,0-.585.723,3.211,3.211,0,0,0,2.96,4.784,6.453,6.453,0,0,0,2.19-.654l5.883-2.56a4.62,4.62,0,0,0,2.542-1.914.461.461,0,0,0,.058-.3.5.5,0,0,0-.244-.265,13.177,13.177,0,0,1-3.423-3.23c-.241-.328-.529-1.1-.879-1.3C593.513,302.538,590.688,305.585,589.69,306.231Z" transform="translate(-462.987 -248.938)" fill="#ffc0c6"/>
    <path id="Path_138" data-name="Path 138" d="M800.532,307l2.168,2.478c.466.53.932,1.059,1.356,1.631a18.975,18.975,0,0,1,2.483,4.678,8.181,8.181,0,0,1,.7,3.868,9.534,9.534,0,0,1-.543,1.967,24.324,24.324,0,0,1-1.475,3.548,20.186,20.186,0,0,1-1.649,2.481,58,58,0,0,1-5.5,6.288,7.074,7.074,0,0,0-1.374,2.912,12.172,12.172,0,0,1-3.381,4.607,9.315,9.315,0,0,1-1.453,1.25,4.713,4.713,0,0,1-2.648.752,2.912,2.912,0,0,1-1.189-.246,3.075,3.075,0,0,1-1.512-2.56,5.481,5.481,0,0,1,.455-2.743c1.244-2.756,4.44-3.95,6.7-5.962a21.863,21.863,0,0,0,3.339-4.125,14.31,14.31,0,0,0,1.687-2.957c.5-1.348.307-2.941.749-4.308.185-.58.53-1.1.718-1.676a1.985,1.985,0,0,0-.1-1.75,2.528,2.528,0,0,0-.982-.72c-1.443-.731-3.058-1.673-3.333-3.27a3.5,3.5,0,0,1,.646-2.5,10.328,10.328,0,0,1,1.819-1.906C798.837,308.173,799.9,307.545,800.532,307Z" transform="translate(-610.718 -251.786)" fill="#ffc0c6"/>
    <path id="Path_139" data-name="Path 139" d="M568.909,321.823a4.013,4.013,0,0,0-1.634-1.946,3.008,3.008,0,0,0-2.383,0,9.034,9.034,0,0,0-2.086,1.26l-1.869,1.379a4.6,4.6,0,0,0-1.109,1.025,4.264,4.264,0,0,0-.577,1.589,11.535,11.535,0,0,0-.294,3.921,11.155,11.155,0,0,0,2.965,5.56,4.952,4.952,0,0,0,3.283,2.057,1.506,1.506,0,0,0,1.451-.731,1.809,1.809,0,0,0,.13-.651,14.511,14.511,0,0,0-1.679-6.788,4.2,4.2,0,0,1-.529-1.824.493.493,0,0,1,.079-.307.514.514,0,0,1,.318-.156c1.342-.265,3.656.778,4.6-.712C570.18,324.513,569.343,322.7,568.909,321.823Z" transform="translate(-443.631 -261.072)" fill="#ffc0c6"/>
    <path id="Path_140" data-name="Path 140" d="M687.14,168.942a1.233,1.233,0,0,1,.085-.567c.214-.381.776-.265,1.2-.169,1.7.429,3.5.04,5.253.14s3.728.977,4.083,2.7A12.848,12.848,0,0,0,701,167.719a4,4,0,0,0,.845-2.438c-.1-1.26-1.154-2.2-2.118-3l-2.912-2.383a4.411,4.411,0,0,0-1.305-.831,6.511,6.511,0,0,0-2.118-.119c-2.118,0-4.39-.966-6.277,0a6.7,6.7,0,0,0-1.957,1.779l-2.605,3.082a1.649,1.649,0,0,0-.416.707,3.111,3.111,0,0,0,.188,1.125c.122.688-.175,1.424.053,2.084.379,1.1,1.713,1.255,2.528,1.885.3.233.778,1.03,1.141,1.019C686.672,170.615,687.116,169.45,687.14,168.942Z" transform="translate(-534.089 -142.615)" fill="#3f3d56"/>
    <path id="Path_141" data-name="Path 141" d="M621.793,276.513a3.457,3.457,0,0,0-.874.813c-.3.463-.368,1.059-.63,1.536-.561,1.043-1.877,1.416-2.7,2.272a.844.844,0,0,0-.265.445.981.981,0,0,0,.22.641l3.956,6.216c1.324.117,2.579-.71,3.9-.6a3.93,3.93,0,0,0,1.467.064,4.266,4.266,0,0,0,.94-.575c.794-.5,1.832-.556,2.491-1.21a3.332,3.332,0,0,0,.707-2.507,9.89,9.89,0,0,0-.236-2.3c-.582-2.383-2.407-4.22-3.55-6.333-.559-1.03-.86-1.631-2.039-.924S622.908,275.7,621.793,276.513Z" transform="translate(-486.535 -227.332)" fill="#3f3d56"/>
    <path id="Path_142" data-name="Path 142" d="M796.744,266.507a9.285,9.285,0,0,1,1.991,1.742c.6.776.943,1.729,1.522,2.523a27.569,27.569,0,0,0,1.959,2.076,15.823,15.823,0,0,1,2.261,3.683,55.23,55.23,0,0,1-5.115,5.772,1.638,1.638,0,0,1-.778.508,1.247,1.247,0,0,1-1.1-.447c-.286-.3-.487-.667-.76-.977a3.905,3.905,0,0,0-2.417-1.168,16.6,16.6,0,0,0-2.74-.04,1.059,1.059,0,0,1-.585-.1.967.967,0,0,1-.318-.365c-1.059-1.822-.728-4.109-.35-6.19l.866-4.766a10.706,10.706,0,0,1,.723-2.648c.328-.7,1.059-1.893,1.964-1.681S795.979,265.956,796.744,266.507Z" transform="translate(-613.278 -220.469)" fill="#3f3d56"/>
    <path id="Path_143" data-name="Path 143" d="M308.9,246.247l-18.239,3.73-.416-.04L274.22,248.32V228.007l19.621-3.317,14.233,1.66.005.09v.042Z" transform="translate(-201.312 -165.274)" fill="#ce1212"/>
    <path id="Path_144" data-name="Path 144" d="M353.415,251.107l-18.239,3.73-.416-.04V233.974l17.831-2.674Z" transform="translate(-245.781 -170.134)" opacity="0.1"/>
    <path id="Path_145" data-name="Path 145" d="M308.08,226.482l-.005.005-17.826,2.626-16.028-1.107,19.621-3.317,14.233,1.66.005.09Z" transform="translate(-201.313 -165.274)" opacity="0.05"/>
    <path id="Path_146" data-name="Path 146" d="M344.9,170.247l-18.239,3.733-.416-.042L310.22,172.32V152.007l19.621-3.317,14.233,1.66.005.09v.042Z" transform="translate(-227.74 -109.395)" fill="#3f3d56"/>
    <path id="Path_147" data-name="Path 147" d="M389.415,175.107l-18.239,3.733-.416-.042V157.974l17.831-2.674Z" transform="translate(-272.213 -114.255)" opacity="0.1"/>
    <path id="Path_148" data-name="Path 148" d="M344.08,150.482l-.005.005-17.826,2.626-16.028-1.107,19.621-3.317,14.233,1.66.005.09Z" transform="translate(-227.741 -109.395)" opacity="0.05"/>
  </g>
</svg>
